<?xml version="1.0" encoding="UTF-8"?>
<svg xmlns="http://www.w3.org/2000/svg" width="1024" height="1024" viewBox="0 0 1024 1024">
  <defs>
    <linearGradient id="altora-accounting-background" x1="0%" y1="100%" x2="100%" y2="0%">
      <stop offset="0%" stop-color="#065F46"/>
      <stop offset="50%" stop-color="#047857"/>
      <stop offset="100%" stop-color="#34D399"/>
    </linearGradient>
    <linearGradient id="altora-accounting-ribbon" x1="0%" y1="100%" x2="100%" y2="0%">
      <stop offset="0%" stop-color="#6EE7B7"/>
      <stop offset="50%" stop-color="#10B981"/>
      <stop offset="100%" stop-color="#047857"/>
    </linearGradient>
    <mask id="altora-accounting-cutout" maskUnits="userSpaceOnUse" x="0" y="0" width="1024" height="1024">
      <rect width="1024" height="1024" fill="#000000"/>
      <path d="M0 0 C13.41823239 11.45508225 20.52775863 26.649097 28.02929688 42.25634766 C29.11040237 44.50367331 30.20121433 46.74611243 31.29296875 48.98828125 C31.98624387 50.42160099 32.67897402 51.85518449 33.37109375 53.2890625 C33.69597778 53.95665588 34.02086182 54.62424927 34.35559082 55.31207275 C36.58984375 59.98028923 36.58984375 59.98028923 36.58984375 62.2109375 C37.24984375 62.5409375 37.90984375 62.8709375 38.58984375 63.2109375 C39.29077159 65.19918915 39.95206095 67.20154019 40.58984375 69.2109375 C41.43744901 71.04982401 42.3233467 72.87143376 43.2421875 74.67578125 C43.76546631 75.71065674 44.28874512 76.74553223 44.82788086 77.81176758 C45.38870361 78.91286865 45.94952637 80.01396973 46.52734375 81.1484375 C47.71641694 83.504415 48.90388985 85.86120077 50.08984375 88.21875 C50.3882164 88.81176407 50.68658905 89.40477814 50.9940033 90.01576233 C53.74032415 95.48610676 56.39926371 100.99552569 59.02734375 106.5234375 C59.46852539 107.45099854 59.90970703 108.37855957 60.36425781 109.33422852 C61.28522754 111.27079943 62.20612443 113.20740499 63.12695312 115.14404297 C65.53655755 120.19568696 67.96907435 125.23623996 70.40328979 130.27606201 C71.2746844 132.08043087 72.14530779 133.8851704 73.01586914 135.68994141 C75.96499493 141.80020069 78.92545983 147.90472423 81.90394592 154.00073242 C83.39579274 157.05441498 84.88497787 160.10939275 86.37417603 163.16436768 C87.09877459 164.64859954 87.82481904 166.13212645 88.55233765 167.6149292 C89.56570325 169.6804149 90.57433216 171.74815152 91.58203125 173.81640625 C91.88755417 174.43582596 92.19307709 175.05524567 92.50785828 175.69343567 C94.58984375 179.98339281 94.58984375 179.98339281 94.58984375 182.2109375 C95.24984375 182.5409375 95.90984375 182.8709375 96.58984375 183.2109375 C97.35913086 184.87426758 97.35913086 184.87426758 98.1796875 187.16796875 C100.99017118 194.47885776 104.50189284 201.4367031 107.95388794 208.46002197 C109.99575608 212.61447049 112.02611171 216.77454765 114.05859375 220.93359375 C114.45792618 221.74983215 114.85725861 222.56607056 115.26869202 223.40704346 C118.26465243 229.53360806 121.2237323 235.67687355 124.15234375 241.8359375 C129.15400399 252.34444635 134.24682484 262.80800628 139.33984375 273.27243042 C143.84405667 282.528909 148.31499037 291.79825142 152.6940918 301.11474609 C155.21315291 306.4587323 157.83913267 311.74291596 160.50219727 317.01635742 C163.2818353 322.54204477 165.94320396 328.12051427 168.58984375 333.7109375 C173.32550276 343.7115671 178.13444788 353.68407863 183.3125 363.46484375 C184.58984375 366.2109375 184.58984375 366.2109375 184.58984375 369.2109375 C156.28001893 372.77137559 133.0128714 366.95558518 106.93359375 356.32421875 C106.23524414 356.03981934 105.53689453 355.75541992 104.81738281 355.46240234 C102.97070718 354.70230153 101.13151461 353.92409089 99.29296875 353.14453125 C98.4009375 352.83644531 97.50890625 352.52835938 96.58984375 352.2109375 C95.92984375 352.5409375 95.26984375 352.8709375 94.58984375 353.2109375 C94.58984375 352.2209375 94.58984375 351.2309375 94.58984375 350.2109375 C93.79964844 349.97375 93.00945312 349.7365625 92.1953125 349.4921875 C87.60753271 347.86186055 83.28819822 345.81721167 78.90234375 343.7109375 C77.98694824 343.27313965 77.07155273 342.8353418 76.12841797 342.38427734 C66.82748217 337.90095438 57.63689533 333.18811775 48.58984375 328.2109375 C47.43049316 327.65140381 46.27114258 327.09187012 45.07666016 326.51538086 C41.1464504 324.24857476 39.48455035 321.17953474 37.69921875 317.11328125 C37.3716156 316.41460434 37.04401245 315.71592743 36.70648193 314.99607849 C36.00926314 313.50563373 35.32075339 312.0110883 34.64038086 310.51287842 C33.59454765 308.22124469 32.51740431 305.94735242 31.42773438 303.67626953 C29.58313309 299.83088662 27.75858441 295.97653012 25.94287109 292.11743164 C24.82870473 289.74976647 23.71143033 287.38358623 22.59375 285.01757812 C12.58984375 263.817359 12.58984375 263.817359 12.58984375 261.2109375 C11.59984375 260.8809375 10.60984375 260.5509375 9.58984375 260.2109375 C9.48671875 259.3653125 9.38359375 258.5196875 9.27734375 257.6484375 C8.33973603 252.9603989 7.04309572 248.66418947 3.58984375 245.2109375 C2.91093147 243.21506111 2.24783468 241.21380853 1.58984375 239.2109375 C0.15784216 235.74280865 -1.37406941 232.32150641 -2.91015625 228.8984375 C-3.31363281 227.97998047 -3.71710938 227.06152344 -4.1328125 226.11523438 C-4.52339844 225.24318359 -4.91398437 224.37113281 -5.31640625 223.47265625 C-5.67025391 222.67819092 -6.02410156 221.88372559 -6.38867188 221.06518555 C-7.27439653 219.04230515 -7.27439653 219.04230515 -9.41015625 218.2109375 C-9.54292969 217.53039307 -9.67570312 216.84984863 -9.8125 216.14868164 C-10.61609744 212.19864569 -12.26479013 208.84201046 -13.97265625 205.20703125 C-14.32400635 204.44673111 -14.67535645 203.68643097 -15.03735352 202.90309143 C-16.15655592 200.48248691 -17.28275219 198.06523173 -18.41015625 195.6484375 C-19.53689402 193.22777948 -20.66201409 190.80641823 -21.78295898 188.3830719 C-22.479453 186.87779796 -23.17935186 185.37409361 -23.88305664 183.87217712 C-26.32450308 178.60247631 -26.32450308 178.60247631 -26.88305664 176.04920959 C-27.14397095 175.13926491 -27.14397095 175.13926491 -27.41015625 174.2109375 C-28.07015625 173.8809375 -28.73015625 173.5509375 -29.41015625 173.2109375 C-30.18654882 171.40537338 -30.87934841 169.56370929 -31.53515625 167.7109375 C-33.58998142 162.18479524 -35.88350258 156.84986462 -38.41015625 151.5234375 C-38.75320801 150.8001123 -39.09625977 150.07678711 -39.44970703 149.33154297 C-41.74098869 144.53789738 -44.11074395 139.78943309 -46.59765625 135.09375 C-47.41015625 133.2109375 -47.41015625 133.2109375 -47.41015625 130.2109375 C-50.57000746 130.8943907 -50.57000746 130.8943907 -51.73779297 133.52636719 C-52.18396973 134.55149414 -52.63014648 135.57662109 -53.08984375 136.6328125 C-53.59966797 137.78845703 -54.10949219 138.94410156 -54.63476562 140.13476562 C-55.18498 141.41011994 -55.73510778 142.68551162 -56.28515625 143.9609375 C-56.8628054 145.27848942 -57.44159955 146.59553989 -58.02148438 147.91210938 C-59.22679402 150.65106565 -60.42711725 153.39212725 -61.62402344 156.13476562 C-64.34008275 162.34741597 -67.12850821 168.52742627 -69.91015625 174.7109375 C-70.99383603 177.12744883 -72.07716812 179.54411611 -73.16015625 181.9609375 C-75.32682292 186.79427083 -77.49348958 191.62760417 -79.66015625 196.4609375 C-80.19616455 197.6567041 -80.73217285 198.8524707 -81.28442383 200.08447266 C-82.3700304 202.50609753 -83.4558057 204.92764677 -84.54174805 207.34912109 C-87.21667525 213.31432494 -89.88885451 219.28072589 -92.5546875 225.25 C-98.71274787 239.02914855 -104.94550017 252.77087892 -111.23895264 266.48864746 C-116.69756353 278.39329758 -122.04116022 290.34557238 -127.33691406 302.32342529 C-132.53042034 314.06286015 -137.84382312 325.74284854 -143.22265625 337.3984375 C-148.19674469 348.18561047 -153.15343946 358.9784737 -157.97265625 369.8359375 C-158.43196533 370.86098389 -158.89127441 371.88603027 -159.36450195 372.94213867 C-159.77273193 373.86873291 -160.18096191 374.79532715 -160.6015625 375.75 C-160.95420166 376.54615723 -161.30684082 377.34231445 -161.67016602 378.16259766 C-162.58004184 380.31820696 -162.58004184 380.31820696 -162.41015625 383.2109375 C-163.07015625 383.2109375 -163.73015625 383.2109375 -164.41015625 383.2109375 C-164.66023437 384.02175781 -164.9103125 384.83257813 -165.16796875 385.66796875 C-166.6406331 389.86830386 -168.43257855 393.85455998 -170.28515625 397.8984375 C-171.09711676 399.68454936 -171.90827096 401.47102791 -172.71875 403.2578125 C-173.15300293 404.21494141 -173.58725586 405.17207031 -174.03466797 406.15820312 C-175.9886934 410.49493263 -177.90517394 414.84797847 -179.82495117 419.19995117 C-184.09950273 428.88057338 -188.43103711 438.52726569 -192.97265625 448.0859375 C-193.58065063 449.3687561 -193.58065063 449.3687561 -194.20092773 450.67749023 C-198.23860788 459.10153201 -198.23860788 459.10153201 -200.41015625 462.2109375 C-201.07015625 462.2109375 -201.73015625 462.2109375 -202.41015625 462.2109375 C-202.6525 462.78199219 -202.89484375 463.35304688 -203.14453125 463.94140625 C-208.61634811 473.75352228 -220.57999664 479.33318653 -230.6953125 483.05078125 C-232.59765625 483.5859375 -232.59765625 483.5859375 -236.41015625 484.2109375 C-237.57998047 484.40816406 -237.57998047 484.40816406 -238.7734375 484.609375 C-254.06077031 486.64768604 -268.49930018 483.17938708 -281.16015625 474.4609375 C-293.47967288 464.95984266 -301.04228225 452.70077993 -303.41015625 437.2109375 C-304.97133792 419.32239749 -297.3796777 404.30695244 -290.09765625 388.4609375 C-289.66259766 387.50445313 -289.22753906 386.54796875 -288.77929688 385.5625 C-286.16514212 379.86025739 -283.43826589 374.22673094 -280.6171875 368.625 C-276.07099735 359.59635925 -271.73417127 350.47258931 -267.41015625 341.3359375 C-266.57373861 339.5717349 -265.73722975 337.80757554 -264.90063477 336.04345703 C-259.04943263 323.6991221 -253.2246817 311.34236968 -247.41796875 298.97705078 C-243.86053501 291.40374708 -240.28751876 283.83812913 -236.6953125 276.28125 C-236.29602036 275.44069061 -235.89672821 274.60013123 -235.4853363 273.73410034 C-233.55918075 269.6793824 -231.63107794 265.6256176 -229.69897461 261.57373047 C-226.15369106 254.12110044 -222.6953339 246.64341497 -219.37890625 239.0859375 C-215.97116764 231.33397211 -212.25786978 223.77258808 -208.4251709 216.22375488 C-205.2257747 209.87921563 -202.1413702 203.47644937 -199.03515625 197.0859375 C-198.66642395 196.3280191 -198.29769165 195.57010071 -197.91778564 194.78921509 C-192.99636817 184.66452221 -188.19217011 174.50014183 -183.58764648 164.2265625 C-181.52173701 159.62439015 -179.38759778 155.08265078 -177.09765625 150.5859375 C-173.73487314 143.97740549 -170.63669964 137.25803029 -167.53515625 130.5234375 C-162.46157784 119.51839688 -157.22958729 108.59913167 -151.91015625 97.7109375 C-146.78355294 87.21546306 -141.73253628 76.69665057 -136.84765625 66.0859375 C-132.32356143 56.28540392 -127.75268557 46.50885534 -123.08377075 36.77642822 C-122.39640713 35.34056821 -121.71210962 33.90323549 -121.03121948 32.46429443 C-110.25849563 9.7203472 -96.50747703 -5.24896699 -72.54296875 -13.82421875 C-47.33388542 -21.58811349 -20.72722927 -15.88783213 0 0 Z " fill="#FFFFFF" transform="translate(561.41015625,241.7890625)"/>
    </mask>
  </defs>
  <g id="background"></g>
  <g>
    <g id="main-letter-a" mask="url(#altora-accounting-cutout)"><path d="M0 0 C13.41823239 11.45508225 20.52775863 26.649097 28.02929688 42.25634766 C29.11040237 44.50367331 30.20121433 46.74611243 31.29296875 48.98828125 C31.98624387 50.42160099 32.67897402 51.85518449 33.37109375 53.2890625 C33.69597778 53.95665588 34.02086182 54.62424927 34.35559082 55.31207275 C36.58984375 59.98028923 36.58984375 59.98028923 36.58984375 62.2109375 C37.24984375 62.5409375 37.90984375 62.8709375 38.58984375 63.2109375 C39.29077159 65.19918915 39.95206095 67.20154019 40.58984375 69.2109375 C41.43744901 71.04982401 42.3233467 72.87143376 43.2421875 74.67578125 C43.76546631 75.71065674 44.28874512 76.74553223 44.82788086 77.81176758 C45.38870361 78.91286865 45.94952637 80.01396973 46.52734375 81.1484375 C47.71641694 83.504415 48.90388985 85.86120077 50.08984375 88.21875 C50.3882164 88.81176407 50.68658905 89.40477814 50.9940033 90.01576233 C53.74032415 95.48610676 56.39926371 100.99552569 59.02734375 106.5234375 C59.46852539 107.45099854 59.90970703 108.37855957 60.36425781 109.33422852 C61.28522754 111.27079943 62.20612443 113.20740499 63.12695312 115.14404297 C65.53655755 120.19568696 67.96907435 125.23623996 70.40328979 130.27606201 C71.2746844 132.08043087 72.14530779 133.8851704 73.01586914 135.68994141 C75.96499493 141.80020069 78.92545983 147.90472423 81.90394592 154.00073242 C83.39579274 157.05441498 84.88497787 160.10939275 86.37417603 163.16436768 C87.09877459 164.64859954 87.82481904 166.13212645 88.55233765 167.6149292 C89.56570325 169.6804149 90.57433216 171.74815152 91.58203125 173.81640625 C91.88755417 174.43582596 92.19307709 175.05524567 92.50785828 175.69343567 C94.58984375 179.98339281 94.58984375 179.98339281 94.58984375 182.2109375 C95.24984375 182.5409375 95.90984375 182.8709375 96.58984375 183.2109375 C97.35913086 184.87426758 97.35913086 184.87426758 98.1796875 187.16796875 C100.99017118 194.47885776 104.50189284 201.4367031 107.95388794 208.46002197 C109.99575608 212.61447049 112.02611171 216.77454765 114.05859375 220.93359375 C114.45792618 221.74983215 114.85725861 222.56607056 115.26869202 223.40704346 C118.26465243 229.53360806 121.2237323 235.67687355 124.15234375 241.8359375 C129.15400399 252.34444635 134.24682484 262.80800628 139.33984375 273.27243042 C143.84405667 282.528909 148.31499037 291.79825142 152.6940918 301.11474609 C155.21315291 306.4587323 157.83913267 311.74291596 160.50219727 317.01635742 C163.2818353 322.54204477 165.94320396 328.12051427 168.58984375 333.7109375 C173.32550276 343.7115671 178.13444788 353.68407863 183.3125 363.46484375 C184.58984375 366.2109375 184.58984375 366.2109375 184.58984375 369.2109375 C156.28001893 372.77137559 133.0128714 366.95558518 106.93359375 356.32421875 C106.23524414 356.03981934 105.53689453 355.75541992 104.81738281 355.46240234 C102.97070718 354.70230153 101.13151461 353.92409089 99.29296875 353.14453125 C98.4009375 352.83644531 97.50890625 352.52835938 96.58984375 352.2109375 C95.92984375 352.5409375 95.26984375 352.8709375 94.58984375 353.2109375 C94.58984375 352.2209375 94.58984375 351.2309375 94.58984375 350.2109375 C93.79964844 349.97375 93.00945312 349.7365625 92.1953125 349.4921875 C87.60753271 347.86186055 83.28819822 345.81721167 78.90234375 343.7109375 C77.98694824 343.27313965 77.07155273 342.8353418 76.12841797 342.38427734 C66.82748217 337.90095438 57.63689533 333.18811775 48.58984375 328.2109375 C47.43049316 327.65140381 46.27114258 327.09187012 45.07666016 326.51538086 C41.1464504 324.24857476 39.48455035 321.17953474 37.69921875 317.11328125 C37.3716156 316.41460434 37.04401245 315.71592743 36.70648193 314.99607849 C36.00926314 313.50563373 35.32075339 312.0110883 34.64038086 310.51287842 C33.59454765 308.22124469 32.51740431 305.94735242 31.42773438 303.67626953 C29.58313309 299.83088662 27.75858441 295.97653012 25.94287109 292.11743164 C24.82870473 289.74976647 23.71143033 287.38358623 22.59375 285.01757812 C12.58984375 263.817359 12.58984375 263.817359 12.58984375 261.2109375 C11.59984375 260.8809375 10.60984375 260.5509375 9.58984375 260.2109375 C9.48671875 259.3653125 9.38359375 258.5196875 9.27734375 257.6484375 C8.33973603 252.9603989 7.04309572 248.66418947 3.58984375 245.2109375 C2.91093147 243.21506111 2.24783468 241.21380853 1.58984375 239.2109375 C0.15784216 235.74280865 -1.37406941 232.32150641 -2.91015625 228.8984375 C-3.31363281 227.97998047 -3.71710938 227.06152344 -4.1328125 226.11523438 C-4.52339844 225.24318359 -4.91398437 224.37113281 -5.31640625 223.47265625 C-5.67025391 222.67819092 -6.02410156 221.88372559 -6.38867188 221.06518555 C-7.27439653 219.04230515 -7.27439653 219.04230515 -9.41015625 218.2109375 C-9.54292969 217.53039307 -9.67570312 216.84984863 -9.8125 216.14868164 C-10.61609744 212.19864569 -12.26479013 208.84201046 -13.97265625 205.20703125 C-14.32400635 204.44673111 -14.67535645 203.68643097 -15.03735352 202.90309143 C-16.15655592 200.48248691 -17.28275219 198.06523173 -18.41015625 195.6484375 C-19.53689402 193.22777948 -20.66201409 190.80641823 -21.78295898 188.3830719 C-22.479453 186.87779796 -23.17935186 185.37409361 -23.88305664 183.87217712 C-26.32450308 178.60247631 -26.32450308 178.60247631 -26.88305664 176.04920959 C-27.14397095 175.13926491 -27.14397095 175.13926491 -27.41015625 174.2109375 C-28.07015625 173.8809375 -28.73015625 173.5509375 -29.41015625 173.2109375 C-30.18654882 171.40537338 -30.87934841 169.56370929 -31.53515625 167.7109375 C-33.58998142 162.18479524 -35.88350258 156.84986462 -38.41015625 151.5234375 C-38.75320801 150.8001123 -39.09625977 150.07678711 -39.44970703 149.33154297 C-41.74098869 144.53789738 -44.11074395 139.78943309 -46.59765625 135.09375 C-47.41015625 133.2109375 -47.41015625 133.2109375 -47.41015625 130.2109375 C-50.57000746 130.8943907 -50.57000746 130.8943907 -51.73779297 133.52636719 C-52.18396973 134.55149414 -52.63014648 135.57662109 -53.08984375 136.6328125 C-53.59966797 137.78845703 -54.10949219 138.94410156 -54.63476562 140.13476562 C-55.18498 141.41011994 -55.73510778 142.68551162 -56.28515625 143.9609375 C-56.8628054 145.27848942 -57.44159955 146.59553989 -58.02148438 147.91210938 C-59.22679402 150.65106565 -60.42711725 153.39212725 -61.62402344 156.13476562 C-64.34008275 162.34741597 -67.12850821 168.52742627 -69.91015625 174.7109375 C-70.99383603 177.12744883 -72.07716812 179.54411611 -73.16015625 181.9609375 C-75.32682292 186.79427083 -77.49348958 191.62760417 -79.66015625 196.4609375 C-80.19616455 197.6567041 -80.73217285 198.8524707 -81.28442383 200.08447266 C-82.3700304 202.50609753 -83.4558057 204.92764677 -84.54174805 207.34912109 C-87.21667525 213.31432494 -89.88885451 219.28072589 -92.5546875 225.25 C-98.71274787 239.02914855 -104.94550017 252.77087892 -111.23895264 266.48864746 C-116.69756353 278.39329758 -122.04116022 290.34557238 -127.33691406 302.32342529 C-132.53042034 314.06286015 -137.84382312 325.74284854 -143.22265625 337.3984375 C-148.19674469 348.18561047 -153.15343946 358.9784737 -157.97265625 369.8359375 C-158.43196533 370.86098389 -158.89127441 371.88603027 -159.36450195 372.94213867 C-159.77273193 373.86873291 -160.18096191 374.79532715 -160.6015625 375.75 C-160.95420166 376.54615723 -161.30684082 377.34231445 -161.67016602 378.16259766 C-162.58004184 380.31820696 -162.58004184 380.31820696 -162.41015625 383.2109375 C-163.07015625 383.2109375 -163.73015625 383.2109375 -164.41015625 383.2109375 C-164.66023437 384.02175781 -164.9103125 384.83257813 -165.16796875 385.66796875 C-166.6406331 389.86830386 -168.43257855 393.85455998 -170.28515625 397.8984375 C-171.09711676 399.68454936 -171.90827096 401.47102791 -172.71875 403.2578125 C-173.15300293 404.21494141 -173.58725586 405.17207031 -174.03466797 406.15820312 C-175.9886934 410.49493263 -177.90517394 414.84797847 -179.82495117 419.19995117 C-184.09950273 428.88057338 -188.43103711 438.52726569 -192.97265625 448.0859375 C-193.58065063 449.3687561 -193.58065063 449.3687561 -194.20092773 450.67749023 C-198.23860788 459.10153201 -198.23860788 459.10153201 -200.41015625 462.2109375 C-201.07015625 462.2109375 -201.73015625 462.2109375 -202.41015625 462.2109375 C-202.6525 462.78199219 -202.89484375 463.35304688 -203.14453125 463.94140625 C-208.61634811 473.75352228 -220.57999664 479.33318653 -230.6953125 483.05078125 C-232.59765625 483.5859375 -232.59765625 483.5859375 -236.41015625 484.2109375 C-237.57998047 484.40816406 -237.57998047 484.40816406 -238.7734375 484.609375 C-254.06077031 486.64768604 -268.49930018 483.17938708 -281.16015625 474.4609375 C-293.47967288 464.95984266 -301.04228225 452.70077993 -303.41015625 437.2109375 C-304.97133792 419.32239749 -297.3796777 404.30695244 -290.09765625 388.4609375 C-289.66259766 387.50445313 -289.22753906 386.54796875 -288.77929688 385.5625 C-286.16514212 379.86025739 -283.43826589 374.22673094 -280.6171875 368.625 C-276.07099735 359.59635925 -271.73417127 350.47258931 -267.41015625 341.3359375 C-266.57373861 339.5717349 -265.73722975 337.80757554 -264.90063477 336.04345703 C-259.04943263 323.6991221 -253.2246817 311.34236968 -247.41796875 298.97705078 C-243.86053501 291.40374708 -240.28751876 283.83812913 -236.6953125 276.28125 C-236.29602036 275.44069061 -235.89672821 274.60013123 -235.4853363 273.73410034 C-233.55918075 269.6793824 -231.63107794 265.6256176 -229.69897461 261.57373047 C-226.15369106 254.12110044 -222.6953339 246.64341497 -219.37890625 239.0859375 C-215.97116764 231.33397211 -212.25786978 223.77258808 -208.4251709 216.22375488 C-205.2257747 209.87921563 -202.1413702 203.47644937 -199.03515625 197.0859375 C-198.66642395 196.3280191 -198.29769165 195.57010071 -197.91778564 194.78921509 C-192.99636817 184.66452221 -188.19217011 174.50014183 -183.58764648 164.2265625 C-181.52173701 159.62439015 -179.38759778 155.08265078 -177.09765625 150.5859375 C-173.73487314 143.97740549 -170.63669964 137.25803029 -167.53515625 130.5234375 C-162.46157784 119.51839688 -157.22958729 108.59913167 -151.91015625 97.7109375 C-146.78355294 87.21546306 -141.73253628 76.69665057 -136.84765625 66.0859375 C-132.32356143 56.28540392 -127.75268557 46.50885534 -123.08377075 36.77642822 C-122.39640713 35.34056821 -121.71210962 33.90323549 -121.03121948 32.46429443 C-110.25849563 9.7203472 -96.50747703 -5.24896699 -72.54296875 -13.82421875 C-47.33388542 -21.58811349 -20.72722927 -15.88783213 0 0 Z " fill="#FFFFFF" transform="translate(561.41015625,241.7890625)"/></g>
    <g id="lower-ribbon" transform="translate(0 10)"><path d="M0 0 C1.83803979 0.81173628 3.70146155 1.56844753 5.5859375 2.265625 C7.77734375 3.2265625 7.77734375 3.2265625 8.77734375 5.2265625 C9.59074219 5.49082031 10.40414062 5.75507812 11.2421875 6.02734375 C15.93794217 7.62026826 20.02466954 9.99364206 24.33984375 12.4140625 C32.80669144 17.09227112 41.32051735 21.66756987 49.90402222 26.12734985 C51.13087929 26.76537149 52.35676972 27.40525616 53.58157349 28.04721069 C67.05083172 36.08526616 67.05083172 36.08526616 81.77734375 40.2265625 C81.77734375 40.8865625 81.77734375 41.5465625 81.77734375 42.2265625 C88.20707038 44.23229581 94.66523519 45.99077085 101.2109375 47.578125 C104.01545235 48.28672388 106.69370194 49.19603448 109.41015625 50.1875 C127.02022051 55.62169616 144.79709686 54.775369 162.77734375 52.2265625 C185.46159163 95.23778231 185.46159163 95.23778231 178.12109375 120.5625 C175.52754715 127.63443811 171.65597445 134.45599377 166.77734375 140.2265625 C166.11734375 140.2265625 165.45734375 140.2265625 164.77734375 140.2265625 C164.54273438 140.814375 164.308125 141.4021875 164.06640625 142.0078125 C159.56872964 149.74926801 147.81479844 154.4361254 139.52734375 156.9140625 C96.95678765 167.51302448 48.37179468 140.00140249 12.38623047 120.61767578 C7.04371861 117.76893607 1.65632787 115.00561758 -3.72265625 112.2265625 C-16.7205885 105.51117371 -16.7205885 105.51117371 -22.1875 102.56640625 C-65.19095871 79.41176768 -113.20817502 59.70700099 -162.49609375 73.90234375 C-175.38941856 78.48393401 -187.64604008 85.58492229 -198.22265625 94.2265625 C-198.57891665 89.95143767 -197.75168632 88.55754408 -195.22265625 85.2265625 C-194.31708471 83.41490126 -193.46372509 81.57670112 -192.6484375 79.72265625 C-191.90678345 78.04985596 -191.90678345 78.04985596 -191.15014648 76.34326172 C-190.88805389 75.74608337 -190.6259613 75.14890503 -190.35592651 74.53363037 C-188.92382437 71.2715578 -187.47454508 68.01711367 -186.02734375 64.76171875 C-185.56819832 63.72724609 -185.56819832 63.72724609 -185.09977722 62.671875 C-181.51933014 54.61822618 -177.83819414 46.61097831 -174.16015625 38.6015625 C-170.27324844 30.13697387 -166.39717562 21.66968209 -162.64453125 13.14453125 C-162.36634048 12.51335388 -162.08814972 11.88217651 -161.80152893 11.23187256 C-160.50642525 8.29049715 -159.21814292 5.34639607 -157.93920898 2.39794922 C-157.49005127 1.37330566 -157.04089355 0.34866211 -156.578125 -0.70703125 C-156.19293701 -1.59447021 -155.80774902 -2.48190918 -155.41088867 -3.39624023 C-153.78237687 -6.65426765 -152.48589557 -9.12576546 -149.17651367 -10.82250977 C-148.40154541 -11.07572998 -147.62657715 -11.3289502 -146.828125 -11.58984375 C-145.9613916 -11.87778809 -145.0946582 -12.16573242 -144.20166016 -12.46240234 C-143.28046387 -12.75066895 -142.35926758 -13.03893555 -141.41015625 -13.3359375 C-140.46833496 -13.63967285 -139.52651367 -13.9434082 -138.55615234 -14.25634766 C-91.63959306 -29.07842501 -43.99319284 -19.46793948 0 0 Z " fill="url(#altora-accounting-ribbon)" transform="translate(590.22265625,567.7734375)"/></g>
    <g id="inner-hole-negative-space" aria-label="Transparent cut-out created by altora-accounting-cutout"/>
  </g>
</svg>