<svg xmlns="http://www.w3.org/2000/svg" width="720" height="620" viewBox="0 0 720 620"><defs><linearGradient id="main-algora-purple-3fblsb" x1="0%" y1="0%" x2="100%" y2="100%"><stop offset="0%" stop-color="#123766"/><stop offset="50%" stop-color="#082145"/><stop offset="100%" stop-color="#061A38"/></linearGradient><linearGradient id="ribbon-algora-purple-3fblsb" x1="85.35533905932738%" y1="14.644660940672622%" x2="14.64466094067263%" y2="85.35533905932738%"><stop offset="0%" stop-color="#B198DD"/><stop offset="50%" stop-color="#B96ECA"/><stop offset="100%" stop-color="#C05BC8"/></linearGradient></defs><g transform="translate(-267 -195)"><path d="M0 0 C1.04881348 -0.00636475 2.09762695 -0.01272949 3.17822266 -0.01928711 C19.93635077 0.25295685 31.71155654 6.74249651 43.375 18.5 C48.26476595 23.59987308 51.59765545 29.07883157 54.875 35.3125 C55.38490479 36.26390869 55.89480957 37.21531738 56.42016602 38.19555664 C58.07918362 41.29314189 59.72693273 44.39657723 61.375 47.5 C63.6819248 51.81550053 65.99615808 56.12704792 68.3125 60.4375 C69.19542725 62.08310913 69.19542725 62.08310913 70.09619141 63.76196289 C73.89036318 70.81147378 77.78120219 77.79754956 81.75 84.75 C87.52921904 94.88096564 93.03286343 105.14558151 98.49902344 115.44726562 C99.17509419 116.72137328 99.8512006 117.99546202 100.52734375 119.26953125 C100.85735382 119.89143341 101.18736389 120.51333557 101.52737427 121.15408325 C104.478217 126.70812964 107.47880358 132.23398528 110.5 137.75 C114.82573946 145.64856961 119.11164206 153.56757741 123.375 161.5 C127.68293677 169.51405536 132.0099691 177.51689536 136.375 185.5 C141.34586356 194.59109807 146.26324288 203.71025098 151.16845703 212.83691406 C154.83596247 219.65591428 158.53107975 226.45892824 162.25 233.25 C167.37527304 242.61401237 172.4009598 252.02981715 177.41445923 261.45391846 C182.1775217 270.40533859 186.98666324 279.32954656 191.8605957 288.22119141 C194.64376217 293.30570482 197.40133893 298.40315947 200.1328125 303.515625 C200.61750252 304.42272217 200.61750252 304.42272217 201.11198425 305.34814453 C202.41886513 307.79494963 203.72526269 310.24200826 205.02957153 312.69018555 C209.22359617 320.56066578 213.46593087 328.39429334 218.02612305 336.06005859 C218.86760596 337.50756454 219.63141105 338.99985253 220.375 340.5 C220.045 341.16 219.715 341.82 219.375 342.5 C218.92769531 341.91992188 218.48039062 341.33984375 218.01953125 340.7421875 C217.41496094 339.96101563 216.81039063 339.17984375 216.1875 338.375 C215.59582031 337.60929687 215.00414062 336.84359375 214.39453125 336.0546875 C202.12390121 320.53245917 183.40542418 307.95971536 163.375 305.5 C160.74634863 305.38953492 158.14069505 305.31645191 155.51196289 305.29467773 C154.75991577 305.28477814 154.00786865 305.27487854 153.23303223 305.26467896 C150.77127119 305.23333645 148.30949092 305.2084155 145.84765625 305.18359375 C144.13129706 305.16300062 142.41494267 305.14200356 140.69859314 305.12062073 C136.19912628 305.0656435 131.6996155 305.01612768 127.20007324 304.96777344 C122.60144176 304.9173797 118.00287339 304.86178728 113.40429688 304.80664062 C104.39458527 304.69935725 95.38481868 304.59784708 86.375 304.5 C86.01555801 303.83351944 85.65611603 303.16703888 85.28578186 302.48036194 C83.62018922 299.39376602 81.95268112 296.30820869 80.28515625 293.22265625 C79.72010376 292.17484985 79.15505127 291.12704346 78.57287598 290.04748535 C74.74010199 282.95951607 70.8127614 275.93214365 66.8125 268.9375 C61.90169944 260.30948316 57.23200761 251.58266649 52.67675781 242.76220703 C49.35498796 236.34092154 45.91856868 230.00085139 42.37426758 223.70019531 C38.77470317 217.27793046 35.31473297 210.78361676 31.85800171 204.28378296 C27.25342054 195.63541576 22.64294156 186.9896329 17.75 178.5 C17.37294922 177.830896 16.99589844 177.16179199 16.60742188 176.47241211 C13.96361069 171.96661949 11.06886657 168.84693329 6.375 166.5 C3.75084614 166.14709033 3.75084614 166.14709033 0.75 166.0625 C-0.25289062 166.00191406 -1.25578125 165.94132813 -2.2890625 165.87890625 C-7.16834522 166.78734413 -10.18668473 168.96368571 -13.625 172.5 C-15.88217771 175.81718418 -17.59291935 179.31813128 -19.3125 182.9375 C-20.34524624 185.01356949 -21.38181862 187.0877393 -22.421875 189.16015625 C-23.21174805 190.74401123 -23.21174805 190.74401123 -24.01757812 192.35986328 C-26.5410727 197.28956972 -29.2979513 202.07762145 -32.0625 206.875 C-37.21616765 215.87735578 -42.06772625 225.00655104 -46.81787109 234.22729492 C-51.77266102 243.83289536 -56.92848813 253.31957208 -62.13671875 262.78955078 C-65.1627412 268.3005254 -68.16370225 273.82521936 -71.16918945 279.34741211 C-73.70189157 283.99496032 -76.25011681 288.63304852 -78.82421875 293.2578125 C-79.33654053 294.18062012 -79.8488623 295.10342773 -80.37670898 296.05419922 C-81.35569668 297.81564327 -82.33813663 299.57517421 -83.32446289 301.33251953 C-83.97596313 302.50596924 -83.97596313 302.50596924 -84.640625 303.703125 C-85.02508789 304.39051758 -85.40955078 305.07791016 -85.80566406 305.78613281 C-86.76876999 307.48412706 -86.76876999 307.48412706 -86.625 309.5 C-85.99335937 309.30664062 -85.36171875 309.11328125 -84.7109375 308.9140625 C-73.11086077 305.53767129 -61.96816837 304.32250885 -49.9375 304.25 C-48.5129248 304.23610229 -48.5129248 304.23610229 -47.05957031 304.22192383 C-37.38913168 304.2646023 -28.43707182 305.61499773 -19.625 309.6875 C-18.94421387 309.99574707 -18.26342773 310.30399414 -17.56201172 310.62158203 C2.06300111 319.72806946 15.26092518 334.31939933 26.375 352.5 C26.91495605 353.38155762 27.45491211 354.26311523 28.01123047 355.17138672 C31.03363307 360.11235066 34.04348189 365.06071924 37.04296875 370.015625 C39.02600896 373.28868032 41.02111029 376.55253006 43.05078125 379.796875 C43.43032959 380.4045874 43.80987793 381.0122998 44.20092773 381.63842773 C45.16963291 383.18425306 46.14319276 384.72703331 47.1171875 386.26953125 C48.375 388.5 48.375 388.5 48.375 390.5 C46.68848328 390.50213753 46.68848328 390.50213753 44.96789551 390.50431824 C34.26182616 390.52114159 23.55612945 390.564375 12.85025787 390.63209057 C7.349012 390.66607482 1.8480354 390.69142541 -3.65332031 390.69555664 C-49.58812516 390.7422801 -86.28021385 397.14679844 -123.4453125 425.6640625 C-140.1871571 438.30586352 -158.58420955 444.85053709 -179.5 444.875 C-180.59441406 444.89949219 -181.68882812 444.92398437 -182.81640625 444.94921875 C-198.42141181 445.00462114 -211.08214644 438.52286385 -222.3046875 427.96875 C-232.62973278 416.98317994 -237.03676784 404.05933368 -237.125 389.25 C-237.13136475 388.33951904 -237.13772949 387.42903809 -237.14428711 386.4909668 C-236.92626209 374.86823205 -232.58309538 365.87576071 -227.1875 355.75 C-226.55516539 354.54872638 -225.92342066 353.34714208 -225.29223633 352.14526367 C-221.06597813 344.11982306 -216.74464549 336.14593719 -212.375 328.19775391 C-207.89985465 320.04847909 -203.53958491 311.84037832 -199.1875 303.625 C-191.11936948 288.40104666 -182.94823332 273.23549783 -174.68359375 258.1171875 C-173.70567074 256.32815694 -172.72780626 254.53909438 -171.75 252.75 C-171.26619873 251.86489746 -170.78239746 250.97979492 -170.28393555 250.06787109 C-166.19103891 242.56656681 -162.15369014 235.03590654 -158.125 227.5 C-152.65726785 217.27227906 -147.13779875 207.07433587 -141.57421875 196.8984375 C-133.66423127 182.42978506 -125.83933404 167.91556738 -118.0625 153.375 C-112.11751418 142.25988555 -106.11210755 131.17920035 -100.05908203 120.12255859 C-98.62862069 117.50662129 -97.20227044 114.88848696 -95.77734375 112.26953125 C-91.47395532 104.36213698 -87.16121041 96.46031033 -82.8046875 88.58203125 C-82.47469254 87.98524567 -82.14469757 87.38846008 -81.80470276 86.77359009 C-81.1279233 85.54977662 -80.45112976 84.32597095 -79.77432251 83.10217285 C-79.43629608 82.49095581 -79.09826965 81.87973877 -78.75 81.25 C-78.24356461 80.33438293 -78.24356461 80.33438293 -77.72689819 79.40026855 C-72.82129899 70.5270796 -67.98181391 61.62143521 -63.1875 52.6875 C-62.03666638 50.55327322 -60.88563263 48.41915434 -59.734375 46.28515625 C-57.84643013 42.78378328 -55.98024998 39.27305186 -54.140625 35.74609375 C-47.26339307 22.74697596 -38.93930139 12.41460956 -25.625 5.5 C-24.28695312 4.74203125 -24.28695312 4.74203125 -22.921875 3.96875 C-15.36370994 0.33113045 -8.29061223 0.04314862 0 0 Z " transform="translate(626.625,262.5)" fill="url(#main-algora-purple-3fblsb)" /><path d="M0 0 C7.90817219 3.81286874 11.40468861 11.25932439 15.375 18.6875 C15.89610352 19.65228271 16.41720703 20.61706543 16.95410156 21.61108398 C18.64139921 24.73788557 20.32136772 27.86853887 22 31 C24.24885588 35.18811532 26.49916742 39.37544674 28.75 43.5625 C29.32999756 44.64249268 29.90999512 45.72248535 30.50756836 46.83520508 C35.25472238 55.65799602 40.08978694 64.42993213 44.94497681 73.19348145 C50.02047247 82.35892471 55.00775769 91.56790225 59.9375 100.8125 C65.50838553 111.25871561 71.08671193 121.70869293 77.12353516 131.89599609 C80 136.79090013 80 136.79090013 80 139 C81.41701454 138.99333817 81.41701454 138.99333817 82.86265564 138.98654175 C91.79253629 138.94588828 100.72239801 138.91596422 109.65235043 138.89637566 C114.24263828 138.88596624 118.83285105 138.87185927 123.4230957 138.84912109 C127.85810134 138.82729095 132.29303504 138.81541002 136.72809029 138.81024551 C138.41485284 138.80656795 140.10161174 138.79938684 141.78834343 138.78853989 C166.11019386 138.63844109 186.53932249 146.84637532 204 164 C206.86163785 167.20740014 209.45502269 170.53977563 212 174 C212.63470215 174.76417236 213.2694043 175.52834473 213.92333984 176.31567383 C215.90884779 178.88217511 217.41136669 181.36675391 218.91015625 184.23828125 C219.42513672 185.22376953 219.94011719 186.20925781 220.47070312 187.22460938 C220.99599609 188.24361328 221.52128906 189.26261719 222.0625 190.3125 C222.85624023 191.82360352 222.85624023 191.82360352 223.66601562 193.36523438 C231.11965653 207.72074101 234.82356693 222.77878305 230.875 238.875 C225.82856345 254.22264878 215.3292418 266.59759226 201 274 C193.23380578 277.61166807 186.55520749 279.14592434 177.9753418 279.17700195 C177.18101242 279.18357315 176.38668304 279.19014435 175.56828308 279.19691467 C172.94526049 279.21658292 170.32229526 279.22830171 167.69921875 279.23828125 C166.79703928 279.24235678 165.89485981 279.2464323 164.96534157 279.25063133 C160.18124244 279.27147403 155.39717177 279.2857782 150.61303711 279.29516602 C145.71240396 279.3061696 140.81223251 279.34050398 135.91176128 279.38033772 C132.11004395 279.40671425 128.30843259 279.41487678 124.50663185 279.41844749 C122.70282723 279.42326683 120.89902582 279.43474472 119.09531212 279.45348549 C99.0551641 279.64860447 83.62175628 276.28962024 68.421875 262.44140625 C62.34046413 256.31095174 57.77694313 249.76228248 53.3125 242.375 C52.74466797 241.446875 52.17683594 240.51875 51.59179688 239.5625 C50.05406468 237.04588319 48.52371147 234.52512578 47 232 C46.44465576 231.11650879 45.88931152 230.23301758 45.31713867 229.32275391 C44 227 44 227 44 225 C43.34 225 42.68 225 42 225 C40.5311729 222.73687155 39.19341152 220.47515387 37.875 218.125 C36.97897706 216.56761873 36.08036086 215.01172769 35.1796875 213.45703125 C34.67920898 212.59287598 34.17873047 211.7287207 33.66308594 210.83837891 C15.65891925 180.11077439 -0.48214105 153.51392075 -35.734375 141.578125 C-54.63254618 136.75583304 -75.45327886 140.23380351 -94 145 C-93.40204259 141.12589745 -92.2394476 138.20808779 -90.3671875 134.7734375 C-89.81643555 133.75636719 -89.26568359 132.73929688 -88.69824219 131.69140625 C-87.7957373 130.04978516 -87.7957373 130.04978516 -86.875 128.375 C-86.24754883 127.22128906 -85.62009766 126.06757812 -84.97363281 124.87890625 C-80.01645854 115.77493661 -74.95411277 106.72945955 -69.89453125 97.68212891 C-64.34648089 87.71813806 -59.02403469 77.64068616 -53.71661377 67.54696655 C-48.49975294 57.63205561 -43.15822105 47.81136185 -37.56347656 38.1027832 C-34.84337509 33.35734167 -32.24613151 28.57893341 -29.78125 23.6953125 C-28.98630127 22.12559692 -28.98630127 22.12559692 -28.17529297 20.52416992 C-27.17572792 18.5340123 -26.18932185 16.53716407 -25.21923828 14.5324707 C-19.39345392 2.9297795 -13.02053835 -1.22706644 0 0 Z " transform="translate(633,428)" fill="url(#ribbon-algora-purple-3fblsb)" /><path d="M0 0 C7.90817219 3.81286874 11.40468861 11.25932439 15.375 18.6875 C15.89610352 19.65228271 16.41720703 20.61706543 16.95410156 21.61108398 C18.64139921 24.73788557 20.32136772 27.86853887 22 31 C24.24885588 35.18811532 26.49916742 39.37544674 28.75 43.5625 C29.32999756 44.64249268 29.90999512 45.72248535 30.50756836 46.83520508 C35.25472238 55.65799602 40.08978694 64.42993213 44.94497681 73.19348145 C50.02047324 82.35892609 55.00768428 91.56794041 59.9375 100.8125 C68.37451889 117.00145145 68.37451889 117.00145145 77.734375 132.66015625 C79 135 79 135 79 139 C78.25899363 139.00238835 77.51798725 139.00477671 76.75452614 139.00723743 C58.64737831 139.06661107 40.5403642 139.14230197 22.43335915 139.23571491 C13.67661373 139.28050502 4.91990746 139.3199574 -3.83691406 139.34643555 C-11.47753881 139.36955262 -19.11803789 139.40310078 -26.75856268 139.44870156 C-30.79674623 139.47245083 -34.83480676 139.49129843 -38.87305832 139.49761391 C-57.81653285 139.53117032 -75.53158189 140.30067257 -94 145 C-93.40204259 141.12589745 -92.2394476 138.20808779 -90.3671875 134.7734375 C-89.81643555 133.75636719 -89.26568359 132.73929688 -88.69824219 131.69140625 C-87.7957373 130.04978516 -87.7957373 130.04978516 -86.875 128.375 C-86.24754883 127.22128906 -85.62009766 126.06757812 -84.97363281 124.87890625 C-80.01645854 115.77493661 -74.95411277 106.72945955 -69.89453125 97.68212891 C-64.34648089 87.71813806 -59.02403469 77.64068616 -53.71661377 67.54696655 C-48.49975294 57.63205561 -43.15822105 47.81136185 -37.56347656 38.1027832 C-34.84337509 33.35734167 -32.24613151 28.57893341 -29.78125 23.6953125 C-28.98630127 22.12559692 -28.98630127 22.12559692 -28.17529297 20.52416992 C-27.17572792 18.5340123 -26.18932185 16.53716407 -25.21923828 14.5324707 C-19.39345392 2.9297795 -13.02053835 -1.22706644 0 0 Z " transform="translate(633,428)" fill="#FFFFFF" /></g></svg>