<?xml version="1.0" encoding="UTF-8"?>
<svg version="1.1" xmlns="http://www.w3.org/2000/svg" width="1024" height="1024">
<path d="M0 0 C13.41823239 11.45508225 20.52775863 26.649097 28.02929688 42.25634766 C29.11040237 44.50367331 30.20121433 46.74611243 31.29296875 48.98828125 C31.98624387 50.42160099 32.67897402 51.85518449 33.37109375 53.2890625 C33.69597778 53.95665588 34.02086182 54.62424927 34.35559082 55.31207275 C36.58984375 59.98028923 36.58984375 59.98028923 36.58984375 62.2109375 C37.24984375 62.5409375 37.90984375 62.8709375 38.58984375 63.2109375 C39.29077159 65.19918915 39.95206095 67.20154019 40.58984375 69.2109375 C41.43744901 71.04982401 42.3233467 72.87143376 43.2421875 74.67578125 C43.76546631 75.71065674 44.28874512 76.74553223 44.82788086 77.81176758 C45.38870361 78.91286865 45.94952637 80.01396973 46.52734375 81.1484375 C47.71641694 83.504415 48.90388985 85.86120077 50.08984375 88.21875 C50.3882164 88.81176407 50.68658905 89.40477814 50.9940033 90.01576233 C53.74032415 95.48610676 56.39926371 100.99552569 59.02734375 106.5234375 C59.46852539 107.45099854 59.90970703 108.37855957 60.36425781 109.33422852 C61.28522754 111.27079943 62.20612443 113.20740499 63.12695312 115.14404297 C65.53655755 120.19568696 67.96907435 125.23623996 70.40328979 130.27606201 C71.2746844 132.08043087 72.14530779 133.8851704 73.01586914 135.68994141 C75.96499493 141.80020069 78.92545983 147.90472423 81.90394592 154.00073242 C83.39579274 157.05441498 84.88497787 160.10939275 86.37417603 163.16436768 C87.09877459 164.64859954 87.82481904 166.13212645 88.55233765 167.6149292 C89.56570325 169.6804149 90.57433216 171.74815152 91.58203125 173.81640625 C91.88755417 174.43582596 92.19307709 175.05524567 92.50785828 175.69343567 C94.58984375 179.98339281 94.58984375 179.98339281 94.58984375 182.2109375 C95.24984375 182.5409375 95.90984375 182.8709375 96.58984375 183.2109375 C97.35913086 184.87426758 97.35913086 184.87426758 98.1796875 187.16796875 C100.99017118 194.47885776 104.50189284 201.4367031 107.95388794 208.46002197 C109.99575608 212.61447049 112.02611171 216.77454765 114.05859375 220.93359375 C114.45792618 221.74983215 114.85725861 222.56607056 115.26869202 223.40704346 C118.26465243 229.53360806 121.2237323 235.67687355 124.15234375 241.8359375 C129.15400399 252.34444635 134.24682484 262.80800628 139.33984375 273.27243042 C143.84405667 282.528909 148.31499037 291.79825142 152.6940918 301.11474609 C155.21315291 306.4587323 157.83913267 311.74291596 160.50219727 317.01635742 C163.2818353 322.54204477 165.94320396 328.12051427 168.58984375 333.7109375 C173.32550276 343.7115671 178.13444788 353.68407863 183.3125 363.46484375 C184.58984375 366.2109375 184.58984375 366.2109375 184.58984375 369.2109375 C156.28001893 372.77137559 133.0128714 366.95558518 106.93359375 356.32421875 C106.23524414 356.03981934 105.53689453 355.75541992 104.81738281 355.46240234 C102.97070718 354.70230153 101.13151461 353.92409089 99.29296875 353.14453125 C98.4009375 352.83644531 97.50890625 352.52835938 96.58984375 352.2109375 C95.92984375 352.5409375 95.26984375 352.8709375 94.58984375 353.2109375 C94.58984375 352.2209375 94.58984375 351.2309375 94.58984375 350.2109375 C93.79964844 349.97375 93.00945312 349.7365625 92.1953125 349.4921875 C87.60753271 347.86186055 83.28819822 345.81721167 78.90234375 343.7109375 C77.98694824 343.27313965 77.07155273 342.8353418 76.12841797 342.38427734 C66.82748217 337.90095438 57.63689533 333.18811775 48.58984375 328.2109375 C47.43049316 327.65140381 46.27114258 327.09187012 45.07666016 326.51538086 C41.1464504 324.24857476 39.48455035 321.17953474 37.69921875 317.11328125 C37.3716156 316.41460434 37.04401245 315.71592743 36.70648193 314.99607849 C36.00926314 313.50563373 35.32075339 312.0110883 34.64038086 310.51287842 C33.59454765 308.22124469 32.51740431 305.94735242 31.42773438 303.67626953 C29.58313309 299.83088662 27.75858441 295.97653012 25.94287109 292.11743164 C24.82870473 289.74976647 23.71143033 287.38358623 22.59375 285.01757812 C12.58984375 263.817359 12.58984375 263.817359 12.58984375 261.2109375 C11.59984375 260.8809375 10.60984375 260.5509375 9.58984375 260.2109375 C9.48671875 259.3653125 9.38359375 258.5196875 9.27734375 257.6484375 C8.33973603 252.9603989 7.04309572 248.66418947 3.58984375 245.2109375 C2.91093147 243.21506111 2.24783468 241.21380853 1.58984375 239.2109375 C0.15784216 235.74280865 -1.37406941 232.32150641 -2.91015625 228.8984375 C-3.31363281 227.97998047 -3.71710938 227.06152344 -4.1328125 226.11523438 C-4.52339844 225.24318359 -4.91398437 224.37113281 -5.31640625 223.47265625 C-5.67025391 222.67819092 -6.02410156 221.88372559 -6.38867188 221.06518555 C-7.27439653 219.04230515 -7.27439653 219.04230515 -9.41015625 218.2109375 C-9.54292969 217.53039307 -9.67570312 216.84984863 -9.8125 216.14868164 C-10.61609744 212.19864569 -12.26479013 208.84201046 -13.97265625 205.20703125 C-14.32400635 204.44673111 -14.67535645 203.68643097 -15.03735352 202.90309143 C-16.15655592 200.48248691 -17.28275219 198.06523173 -18.41015625 195.6484375 C-19.53689402 193.22777948 -20.66201409 190.80641823 -21.78295898 188.3830719 C-22.479453 186.87779796 -23.17935186 185.37409361 -23.88305664 183.87217712 C-26.32450308 178.60247631 -26.32450308 178.60247631 -26.88305664 176.04920959 C-27.14397095 175.13926491 -27.14397095 175.13926491 -27.41015625 174.2109375 C-28.07015625 173.8809375 -28.73015625 173.5509375 -29.41015625 173.2109375 C-30.18654882 171.40537338 -30.87934841 169.56370929 -31.53515625 167.7109375 C-33.58998142 162.18479524 -35.88350258 156.84986462 -38.41015625 151.5234375 C-38.75320801 150.8001123 -39.09625977 150.07678711 -39.44970703 149.33154297 C-41.74098869 144.53789738 -44.11074395 139.78943309 -46.59765625 135.09375 C-47.41015625 133.2109375 -47.41015625 133.2109375 -47.41015625 130.2109375 C-50.57000746 130.8943907 -50.57000746 130.8943907 -51.73779297 133.52636719 C-52.18396973 134.55149414 -52.63014648 135.57662109 -53.08984375 136.6328125 C-53.59966797 137.78845703 -54.10949219 138.94410156 -54.63476562 140.13476562 C-55.18498 141.41011994 -55.73510778 142.68551162 -56.28515625 143.9609375 C-56.8628054 145.27848942 -57.44159955 146.59553989 -58.02148438 147.91210938 C-59.22679402 150.65106565 -60.42711725 153.39212725 -61.62402344 156.13476562 C-64.34008275 162.34741597 -67.12850821 168.52742627 -69.91015625 174.7109375 C-70.99383603 177.12744883 -72.07716812 179.54411611 -73.16015625 181.9609375 C-75.32682292 186.79427083 -77.49348958 191.62760417 -79.66015625 196.4609375 C-80.19616455 197.6567041 -80.73217285 198.8524707 -81.28442383 200.08447266 C-82.3700304 202.50609753 -83.4558057 204.92764677 -84.54174805 207.34912109 C-87.21667525 213.31432494 -89.88885451 219.28072589 -92.5546875 225.25 C-98.71274787 239.02914855 -104.94550017 252.77087892 -111.23895264 266.48864746 C-116.69756353 278.39329758 -122.04116022 290.34557238 -127.33691406 302.32342529 C-132.53042034 314.06286015 -137.84382312 325.74284854 -143.22265625 337.3984375 C-148.19674469 348.18561047 -153.15343946 358.9784737 -157.97265625 369.8359375 C-158.43196533 370.86098389 -158.89127441 371.88603027 -159.36450195 372.94213867 C-159.77273193 373.86873291 -160.18096191 374.79532715 -160.6015625 375.75 C-160.95420166 376.54615723 -161.30684082 377.34231445 -161.67016602 378.16259766 C-162.58004184 380.31820696 -162.58004184 380.31820696 -162.41015625 383.2109375 C-163.07015625 383.2109375 -163.73015625 383.2109375 -164.41015625 383.2109375 C-164.66023437 384.02175781 -164.9103125 384.83257813 -165.16796875 385.66796875 C-166.6406331 389.86830386 -168.43257855 393.85455998 -170.28515625 397.8984375 C-171.09711676 399.68454936 -171.90827096 401.47102791 -172.71875 403.2578125 C-173.15300293 404.21494141 -173.58725586 405.17207031 -174.03466797 406.15820312 C-175.9886934 410.49493263 -177.90517394 414.84797847 -179.82495117 419.19995117 C-184.09950273 428.88057338 -188.43103711 438.52726569 -192.97265625 448.0859375 C-193.58065063 449.3687561 -193.58065063 449.3687561 -194.20092773 450.67749023 C-198.23860788 459.10153201 -198.23860788 459.10153201 -200.41015625 462.2109375 C-201.07015625 462.2109375 -201.73015625 462.2109375 -202.41015625 462.2109375 C-202.6525 462.78199219 -202.89484375 463.35304688 -203.14453125 463.94140625 C-208.61634811 473.75352228 -220.57999664 479.33318653 -230.6953125 483.05078125 C-232.59765625 483.5859375 -232.59765625 483.5859375 -236.41015625 484.2109375 C-237.57998047 484.40816406 -237.57998047 484.40816406 -238.7734375 484.609375 C-254.06077031 486.64768604 -268.49930018 483.17938708 -281.16015625 474.4609375 C-293.47967288 464.95984266 -301.04228225 452.70077993 -303.41015625 437.2109375 C-304.97133792 419.32239749 -297.3796777 404.30695244 -290.09765625 388.4609375 C-289.66259766 387.50445313 -289.22753906 386.54796875 -288.77929688 385.5625 C-286.16514212 379.86025739 -283.43826589 374.22673094 -280.6171875 368.625 C-276.07099735 359.59635925 -271.73417127 350.47258931 -267.41015625 341.3359375 C-266.57373861 339.5717349 -265.73722975 337.80757554 -264.90063477 336.04345703 C-259.04943263 323.6991221 -253.2246817 311.34236968 -247.41796875 298.97705078 C-243.86053501 291.40374708 -240.28751876 283.83812913 -236.6953125 276.28125 C-236.29602036 275.44069061 -235.89672821 274.60013123 -235.4853363 273.73410034 C-233.55918075 269.6793824 -231.63107794 265.6256176 -229.69897461 261.57373047 C-226.15369106 254.12110044 -222.6953339 246.64341497 -219.37890625 239.0859375 C-215.97116764 231.33397211 -212.25786978 223.77258808 -208.4251709 216.22375488 C-205.2257747 209.87921563 -202.1413702 203.47644937 -199.03515625 197.0859375 C-198.66642395 196.3280191 -198.29769165 195.57010071 -197.91778564 194.78921509 C-192.99636817 184.66452221 -188.19217011 174.50014183 -183.58764648 164.2265625 C-181.52173701 159.62439015 -179.38759778 155.08265078 -177.09765625 150.5859375 C-173.73487314 143.97740549 -170.63669964 137.25803029 -167.53515625 130.5234375 C-162.46157784 119.51839688 -157.22958729 108.59913167 -151.91015625 97.7109375 C-146.78355294 87.21546306 -141.73253628 76.69665057 -136.84765625 66.0859375 C-132.32356143 56.28540392 -127.75268557 46.50885534 -123.08377075 36.77642822 C-122.39640713 35.34056821 -121.71210962 33.90323549 -121.03121948 32.46429443 C-110.25849563 9.7203472 -96.50747703 -5.24896699 -72.54296875 -13.82421875 C-47.33388542 -21.58811349 -20.72722927 -15.88783213 0 0 Z " fill="#173157" transform="translate(561.41015625,241.7890625)"/>
<path d="M0 0 C1.83803979 0.81173628 3.70146155 1.56844753 5.5859375 2.265625 C7.77734375 3.2265625 7.77734375 3.2265625 8.77734375 5.2265625 C9.59074219 5.49082031 10.40414062 5.75507812 11.2421875 6.02734375 C15.93794217 7.62026826 20.02466954 9.99364206 24.33984375 12.4140625 C32.80669144 17.09227112 41.32051735 21.66756987 49.90402222 26.12734985 C51.13087929 26.76537149 52.35676972 27.40525616 53.58157349 28.04721069 C67.05083172 36.08526616 67.05083172 36.08526616 81.77734375 40.2265625 C81.77734375 40.8865625 81.77734375 41.5465625 81.77734375 42.2265625 C88.20707038 44.23229581 94.66523519 45.99077085 101.2109375 47.578125 C104.01545235 48.28672388 106.69370194 49.19603448 109.41015625 50.1875 C127.02022051 55.62169616 144.79709686 54.775369 162.77734375 52.2265625 C185.46159163 95.23778231 185.46159163 95.23778231 178.12109375 120.5625 C175.52754715 127.63443811 171.65597445 134.45599377 166.77734375 140.2265625 C166.11734375 140.2265625 165.45734375 140.2265625 164.77734375 140.2265625 C164.54273438 140.814375 164.308125 141.4021875 164.06640625 142.0078125 C159.56872964 149.74926801 147.81479844 154.4361254 139.52734375 156.9140625 C96.95678765 167.51302448 48.37179468 140.00140249 12.38623047 120.61767578 C7.04371861 117.76893607 1.65632787 115.00561758 -3.72265625 112.2265625 C-16.7205885 105.51117371 -16.7205885 105.51117371 -22.1875 102.56640625 C-65.19095871 79.41176768 -113.20817502 59.70700099 -162.49609375 73.90234375 C-175.38941856 78.48393401 -187.64604008 85.58492229 -198.22265625 94.2265625 C-198.57891665 89.95143767 -197.75168632 88.55754408 -195.22265625 85.2265625 C-194.31708471 83.41490126 -193.46372509 81.57670112 -192.6484375 79.72265625 C-191.90678345 78.04985596 -191.90678345 78.04985596 -191.15014648 76.34326172 C-190.88805389 75.74608337 -190.6259613 75.14890503 -190.35592651 74.53363037 C-188.92382437 71.2715578 -187.47454508 68.01711367 -186.02734375 64.76171875 C-185.56819832 63.72724609 -185.56819832 63.72724609 -185.09977722 62.671875 C-181.51933014 54.61822618 -177.83819414 46.61097831 -174.16015625 38.6015625 C-170.27324844 30.13697387 -166.39717562 21.66968209 -162.64453125 13.14453125 C-162.36634048 12.51335388 -162.08814972 11.88217651 -161.80152893 11.23187256 C-160.50642525 8.29049715 -159.21814292 5.34639607 -157.93920898 2.39794922 C-157.49005127 1.37330566 -157.04089355 0.34866211 -156.578125 -0.70703125 C-156.19293701 -1.59447021 -155.80774902 -2.48190918 -155.41088867 -3.39624023 C-153.78237687 -6.65426765 -152.48589557 -9.12576546 -149.17651367 -10.82250977 C-148.40154541 -11.07572998 -147.62657715 -11.3289502 -146.828125 -11.58984375 C-145.9613916 -11.87778809 -145.0946582 -12.16573242 -144.20166016 -12.46240234 C-143.28046387 -12.75066895 -142.35926758 -13.03893555 -141.41015625 -13.3359375 C-140.46833496 -13.63967285 -139.52651367 -13.9434082 -138.55615234 -14.25634766 C-91.63959306 -29.07842501 -43.99319284 -19.46793948 0 0 Z " fill="#173056" transform="translate(590.22265625,567.7734375)"/>
<path d="M0 0 C4.5207714 3.72360521 6.56486403 8.65095866 9.0625 13.8125 C9.76898682 15.25085205 9.76898682 15.25085205 10.48974609 16.71826172 C12.00264114 19.8076525 13.50204733 22.90333979 15 26 C15.77561279 27.59255615 15.77561279 27.59255615 16.56689453 29.21728516 C18.09218946 32.35036204 19.61040146 35.48673979 21.125 38.625 C21.83474976 40.09030151 21.83474976 40.09030151 22.55883789 41.58520508 C22.99574951 42.49810303 23.43266113 43.41100098 23.8828125 44.3515625 C24.26840332 45.15416504 24.65399414 45.95676758 25.05126953 46.78369141 C26 49 26 49 26.50732422 51.22802734 C26.66990723 51.81277832 26.83249023 52.3975293 27 53 C27.66 53.33 28.32 53.66 29 54 C29.76928711 55.66333008 29.76928711 55.66333008 30.58984375 57.95703125 C33.40032743 65.26792026 36.91204909 72.2257656 40.36404419 79.24908447 C42.40591233 83.40353299 44.43626796 87.56361015 46.46875 91.72265625 C47.06774864 92.94701385 47.06774864 92.94701385 47.67884827 94.19610596 C50.67480914 100.3226715 53.63380244 106.46597629 56.5625 112.625 C61.32531801 122.62833956 66.15869966 132.59698023 71 142.5625 C71.37593292 143.33660217 71.75186584 144.11070435 72.13919067 144.90826416 C73.21730952 147.12788061 74.29601584 149.34721033 75.375 151.56640625 C75.69641464 152.22793198 76.01782928 152.8894577 76.34898376 153.57102966 C77.77093591 156.49339539 79.20802213 159.37377556 80.7890625 162.21459961 C82 165 82 165 81.6875 167.375 C81.460625 167.91125 81.23375 168.4475 81 169 C74.5287144 156.12031335 68.15378358 143.1941367 61.8125 130.25 C61.30521362 129.21497345 60.79792725 128.1799469 60.27526855 127.11355591 C53.77917678 113.85004091 47.38766112 100.55203228 41.23217773 87.12719727 C37.65009765 79.3329507 33.88259552 71.64961547 30.01391602 63.99414062 C26.35976328 56.75609457 22.83706706 49.46153376 19.35742188 42.13818359 C16.67423861 36.49335546 13.96641484 30.86157454 11.23046875 25.2421875 C10.58434286 23.91286533 9.93826525 22.58351969 9.29223633 21.25415039 C8.34006852 19.29498704 7.38671975 17.33645043 6.42929077 15.37985229 C5.54063298 13.56347515 4.6569352 11.74467389 3.7734375 9.92578125 C3.26216309 8.87817627 2.75088867 7.83057129 2.22412109 6.7512207 C1.20991127 4.47177704 0.48811812 2.43511843 0 0 Z " fill="#121E35" transform="translate(629,371)"/>
<path d="M0 0 C3 1 3 1 4.08207703 2.58738708 C4.41294815 3.27196487 4.74381927 3.95654266 5.0847168 4.66186523 C5.65496834 5.82328285 5.65496834 5.82328285 6.23674011 7.00816345 C6.63685806 7.84980545 7.03697601 8.69144745 7.44921875 9.55859375 C8.07543877 10.84782494 8.07543877 10.84782494 8.71430969 12.1631012 C9.59564236 13.98248857 10.47207627 15.80425582 11.34399414 17.62817383 C12.68267557 20.42741192 14.03623053 23.21905153 15.39257812 26.00976562 C16.2456743 27.77561553 17.09791695 29.54187809 17.94921875 31.30859375 C18.35540939 32.14821152 18.76160004 32.98782928 19.18009949 33.85289001 C19.5508107 34.63032059 19.92152191 35.40775116 20.3034668 36.20874023 C20.63195114 36.89411362 20.96043549 37.579487 21.2988739 38.28562927 C22 40 22 40 22 42 C22.66 42.33 23.32 42.66 24 43 C24.70092784 44.98825165 25.3622172 46.99060269 26 49 C26.84760526 50.83888651 27.73350295 52.66049626 28.65234375 54.46484375 C29.17650879 55.50141113 29.70067383 56.53797852 30.24072266 57.60595703 C30.80065918 58.70536621 31.3605957 59.80477539 31.9375 60.9375 C36.4074289 69.79849879 40.83075514 78.67737127 45.125 87.625 C45.57351318 88.55304443 46.02202637 89.48108887 46.48413086 90.43725586 C48.92841554 95.55024776 51.09606653 100.66151988 53 106 C52.01 106.495 52.01 106.495 51 107 C49.06193752 102.9794376 47.12455962 98.95854564 45.1875 94.9375 C44.89111633 94.32233521 44.59473267 93.70717041 44.28936768 93.07336426 C40.88505526 86.00661854 37.48910472 78.93607013 34.11572266 71.85449219 C33.50156494 70.56526855 33.50156494 70.56526855 32.875 69.25 C32.4526709 68.36344727 32.0303418 67.47689453 31.59521484 66.56347656 C28.5546939 60.20120542 25.47098385 53.86082578 22.37109375 47.52734375 C21.95736511 46.68126556 21.54363647 45.83518738 21.11737061 44.96347046 C19.04890706 40.73374494 16.97732693 36.50560496 14.89990234 32.28027344 C9.67805199 21.62727284 4.74147456 10.87520294 0 0 Z " fill="#111D33" transform="translate(576,262)"/>
<path d="M0 0 C0.66 0.33 1.32 0.66 2 1 C-2.2692183 10.65940454 -6.65146948 20.26482218 -11.09863281 29.84350586 C-16.04658582 40.51263268 -20.93650705 51.20710562 -25.75 61.9375 C-26.27537354 63.09830078 -26.80074707 64.25910156 -27.34204102 65.45507812 C-27.82213623 66.53080078 -28.30223145 67.60652344 -28.796875 68.71484375 C-29.22323242 69.66480225 -29.64958984 70.61476074 -30.08886719 71.59350586 C-31.1770425 74.03873935 -31.1770425 74.03873935 -31 77 C-33.5 79.1875 -33.5 79.1875 -36 81 C-36.3562604 76.72487517 -35.52903007 75.33098158 -33 72 C-32.09442846 70.18833876 -31.24106884 68.35013862 -30.42578125 66.49609375 C-29.93070068 65.37936279 -29.43562012 64.26263184 -28.92553711 63.11206055 C-28.66336395 62.51469086 -28.4011908 61.91732117 -28.131073 61.30184937 C-26.71038129 58.06613832 -25.27191355 54.83832457 -23.8359375 51.609375 C-23.53149216 50.92364914 -23.22704681 50.23792328 -22.91337585 49.53141785 C-19.49049479 41.83168912 -15.99814668 34.16387039 -12.49472046 26.5005188 C-11.7952999 24.9703054 -11.09657858 23.43977218 -10.39859009 21.90890503 C-3.63949782 7.08451865 -3.63949782 7.08451865 0 0 Z " fill="#111C31" transform="translate(428,581)"/>
<path d="M0 0 C0.495 1.485 0.495 1.485 1 3 C-16.47548061 16.23510664 -32.51117105 20.60991479 -54.3515625 17.74609375 C-61.36280614 16.70460054 -68.18322387 14.91315515 -75 13 C-75 12.34 -75 11.68 -75 11 C-70.56830874 11.51531294 -66.39676168 12.40225803 -62.07421875 13.515625 C-55.15549964 15.12216272 -48.58404466 15.50179915 -41.5 15.4375 C-40.31599609 15.42920166 -39.13199219 15.42090332 -37.91210938 15.41235352 C-23.9071631 15.14072252 -12.08308853 11.76851825 -1.69140625 1.78125 C-1.13324219 1.1934375 -0.57507813 0.605625 0 0 Z " fill="#0E182A" transform="translate(753,708)"/>
<path d="M0 0 C4.10769419 1.55049355 7.97643245 3.46397399 11.86328125 5.4921875 C12.5241423 5.83446884 13.18500336 6.17675018 13.8658905 6.52940369 C15.28166587 7.2627308 16.69696097 7.99698575 18.11181641 8.73208618 C21.8279476 10.66203999 25.54860969 12.58320828 29.26953125 14.50390625 C30.01288727 14.88767929 30.75624329 15.27145233 31.52212524 15.66685486 C38.16070773 19.09033685 44.82077526 22.46887271 51.5 25.8125 C52.44012939 26.28478027 53.38025879 26.75706055 54.34887695 27.24365234 C59.8363964 29.98166833 65.37217641 32.56316613 71 35 C71 35.66 71 36.32 71 37 C57.01266531 32.93095718 44.08209687 25.63040515 31.2890625 18.796875 C27.30756389 16.67567334 23.29727722 14.61783851 19.2734375 12.578125 C18.13003906 11.99506592 16.98664062 11.41200684 15.80859375 10.8112793 C13.54681708 9.6593235 11.28125962 8.51475647 9.01171875 7.37817383 C7.98433594 6.85247803 6.95695313 6.32678223 5.8984375 5.78515625 C4.97724121 5.31988525 4.05604492 4.85461426 3.10693359 4.37524414 C1 3 1 3 0 0 Z " fill="#0F1A2C" transform="translate(574,671)"/>
<path d="M0 0 C3.93566554 0.60929273 6.97942549 1.83078987 10.5078125 3.66015625 C11.56726074 4.20269043 12.62670898 4.74522461 13.71826172 5.30419922 C15.40459717 6.17455811 15.40459717 6.17455811 17.125 7.0625 C34.34022652 15.7952066 51.71903547 22.8357127 70 29 C70 29.33 70 29.66 70 30 C61.95090475 29.6000978 55.49884877 27.06880143 48.125 23.9375 C45.90032066 23.00461101 43.67383739 22.07600867 41.4453125 21.15234375 C40.47094238 20.73976318 39.49657227 20.32718262 38.49267578 19.90209961 C35.97165662 18.82984965 35.97165662 18.82984965 33 19 C32.34 19 31.68 19 31 19 C31 18.01 31 17.02 31 16 C30.22914063 15.773125 29.45828125 15.54625 28.6640625 15.3125 C23.73069183 13.54532245 19.08944204 11.2790811 14.375 9 C13.43398438 8.54882812 12.49296875 8.09765625 11.5234375 7.6328125 C7.66845306 5.7819819 3.82069829 3.92076425 0 2 C0 1.34 0 0.68 0 0 Z " fill="#121E34" transform="translate(625,576)"/>
<path d="M0 0 C0.66 0 1.32 0 2 0 C0.08444955 6.18830733 -2.24495064 11.99162597 -5.0625 17.8203125 C-5.64489693 19.04136185 -5.64489693 19.04136185 -6.23905945 20.28707886 C-7.48776331 22.90211709 -8.74376583 25.51357217 -10 28.125 C-10.85960872 29.92164644 -11.71873769 31.7185225 -12.57739258 33.515625 C-14.66924389 37.89109864 -16.76667611 42.26386817 -18.86578369 46.63586426 C-20.4810434 50.00267637 -22.09071567 53.37214337 -23.69921875 56.7421875 C-26.12838846 61.83025177 -28.56157084 66.91636692 -31 72 C-32.09473106 69.26520717 -32.05216305 68.14437846 -31.03466797 65.328125 C-30.52564941 64.31234375 -30.01663086 63.2965625 -29.4921875 62.25 C-28.92363037 61.09741699 -28.35507324 59.94483398 -27.76928711 58.75732422 C-27.4607077 58.14532166 -27.1521283 57.53331909 -26.834198 56.902771 C-25.53383305 54.32322359 -24.25927182 51.73124254 -22.98368835 49.13937378 C-22.32078733 47.79251393 -21.65663644 46.44626858 -20.99128723 45.10061646 C-17.52522215 38.07818727 -14.22060662 30.98439896 -10.9375 23.875 C-10.41462402 22.74578125 -9.89174805 21.6165625 -9.35302734 20.453125 C-6.20732853 13.64810246 -3.09355898 6.82887143 0 0 Z " fill="#131F35" transform="translate(349,466)"/>
<path d="M0 0 C3.31650483 2.17326081 4.82239837 4.07266726 6.48046875 7.65625 C6.91770264 8.58687256 7.35493652 9.51749512 7.80541992 10.47631836 C8.26150635 11.4741333 8.71759277 12.47194824 9.1875 13.5 C9.66872314 14.52939697 10.14994629 15.55879395 10.64575195 16.61938477 C11.63263426 18.73143344 12.61529805 20.84545837 13.59375 22.96142578 C15.60084041 27.29827426 17.64223177 31.61856023 19.6875 35.9375 C20.04811523 36.70280029 20.40873047 37.46810059 20.78027344 38.2565918 C23.56241949 44.14127132 26.45315171 49.96725031 29.43823242 55.75170898 C31.31041162 59.42502158 32.79814643 63.05622925 34 67 C33.01 67.495 33.01 67.495 32 68 C31.70569092 67.3507959 31.41138184 66.7015918 31.1081543 66.03271484 C23.16427086 48.57399555 14.77800551 31.37564587 6.09838867 14.27099609 C5.69370361 13.47008545 5.28901855 12.6691748 4.87207031 11.84399414 C4.10646143 10.3291914 3.33748551 8.81608439 2.56469727 7.30493164 C0 2.22492857 0 2.22492857 0 0 Z " fill="#111E34" transform="translate(711,541)"/>
<path d="M0 0 C-1.14597656 0.58007812 -2.29195313 1.16015625 -3.47265625 1.7578125 C-5.00285796 2.54638271 -6.53279167 3.33547312 -8.0625 4.125 C-9.19075195 4.69347656 -9.19075195 4.69347656 -10.34179688 5.2734375 C-14.96531562 7.67526542 -18.78583885 10.28659042 -22.58764648 13.85888672 C-24 15 -24 15 -26 15 C-26.26224365 15.58523437 -26.5244873 16.17046875 -26.79467773 16.7734375 C-28.05932104 19.10958232 -29.45682371 20.70661565 -31.28515625 22.625 C-35.22005411 27.02408726 -37.81627467 31.74139386 -40.4375 37 C-40.88287109 37.87011719 -41.32824219 38.74023438 -41.78710938 39.63671875 C-42.86842072 41.75283342 -43.93905771 43.87362126 -45 46 C-45.75815423 43.75901264 -46.13428806 42.43738555 -45.43017578 40.14404297 C-45.1051709 39.51643066 -44.78016602 38.88881836 -44.4453125 38.2421875 C-44.08244141 37.53892334 -43.71957031 36.83565918 -43.34570312 36.11108398 C-42.94287109 35.37317627 -42.54003906 34.63526855 -42.125 33.875 C-41.50915039 32.73430054 -41.50915039 32.73430054 -40.88085938 31.57055664 C-37.3466196 25.2352295 -33.25185176 20.02150738 -28 15 C-26.99066406 13.96166016 -26.99066406 13.96166016 -25.9609375 12.90234375 C-21.48789292 8.55494649 -16.62716305 5.41707969 -11.1875 2.4375 C-10.54087402 2.07833496 -9.89424805 1.71916992 -9.22802734 1.34912109 C-5.66690406 -0.51083456 -3.81411596 -1.24779274 0 0 Z " fill="#101C30" transform="translate(487,231)"/>
<path d="M0 0 C19.26228713 36.52289773 19.26228713 36.52289773 18 57 C17.01 57.495 17.01 57.495 16 58 C15.90203125 56.69546875 15.8040625 55.3909375 15.703125 54.046875 C14.89761508 44.2205961 14.04379976 35.09336511 10 26 C9.62133789 25.1342334 9.24267578 24.2684668 8.85253906 23.37646484 C7.50263217 20.33591248 6.10352769 17.32278657 4.6875 14.3125 C4.01279663 12.82097412 4.01279663 12.82097412 3.32446289 11.29931641 C1.14257079 6.34672684 1.14257079 6.34672684 -2.91552734 3.13818359 C-5.04823217 2.76480799 -5.04823217 2.76480799 -8 3 C-5.48696401 0.48696401 -3.51117809 0 0 0 Z " fill="#132035" transform="translate(753,620)"/>
<path d="M0 0 C1.55575526 4.70437426 -0.39826539 7.88612079 -2.40234375 12.16015625 C-2.93717125 13.33958046 -2.93717125 13.33958046 -3.48280334 14.54283142 C-4.62348458 17.05452449 -5.7794412 19.55877735 -6.9375 22.0625 C-8.08988583 24.57066211 -9.23887981 27.08024691 -10.38148499 29.59288025 C-11.09310234 31.15606501 -11.8107307 32.71652997 -12.53489685 34.27394104 C-14.46881725 38.46353293 -14.46881725 38.46353293 -15 43 C-15.66 43 -16.32 43 -17 43 C-17.4021875 44.3921875 -17.4021875 44.3921875 -17.8125 45.8125 C-18.91148371 48.76240366 -19.62418561 50.05615186 -22 52 C-21.35289221 47.77975326 -19.9185322 44.31565401 -18.12890625 40.44921875 C-17.54877237 39.18036403 -16.96869607 37.91148299 -16.38867188 36.64257812 C-15.47790278 34.667083 -14.5648882 32.69265282 -13.65014648 30.71899414 C-10.50471492 23.91481702 -7.50629822 17.38888298 -6 10 C-4.875 7.5 -4.875 7.5 -4 6 C-3.34 6 -2.68 6 -2 6 C-1.34 4.02 -0.68 2.04 0 0 Z " fill="#111C31" transform="translate(414,582)"/>
<path d="M0 0 C2.37442417 2.16411803 3.7168798 4.18889175 5.125 7.0625 C12.61206043 20.76649453 24.37385149 28.44524195 39 33 C39 33.33 39 33.66 39 34 C27.193409 33.61289866 18.91734915 27.69566975 10.5234375 19.72265625 C5.07646458 13.84565916 0.96605281 8.05829417 0 0 Z " fill="#101B2E" transform="translate(262,690)"/>
<path d="M0 0 C1.47952091 4.557341 -0.22326713 7.48592897 -2.19140625 11.625 C-2.53372787 12.3677417 -2.8760495 13.1104834 -3.22874451 13.87573242 C-4.3291432 16.25570033 -5.44573015 18.62767725 -6.5625 21 C-7.2881391 22.5659295 -8.01275932 24.13233156 -8.73632812 25.69921875 C-12.67918722 34.20733463 -16.73985947 42.64557877 -21 51 C-22.44533647 46.66399059 -20.41899955 43.91786641 -18.5546875 40 C-18.18779816 39.20907959 -17.82090881 38.41815918 -17.44290161 37.60327148 C-16.26274049 35.06446896 -15.06918557 32.53223153 -13.875 30 C-13.09284257 28.32464209 -12.3115823 26.64886503 -11.53125 24.97265625 C-10.03260119 21.75578859 -8.52941946 18.54110764 -7.02246094 15.328125 C-4.63859507 10.23809126 -2.3053137 5.12611916 0 0 Z " fill="#101C31" transform="translate(458,485)"/>
<path d="M0 0 C0.70463379 -0.00926514 1.40926758 -0.01853027 2.13525391 -0.02807617 C6.87867167 0.00043129 10.73178472 0.78223497 15.1875 2.25 C15.1875 2.58 15.1875 2.91 15.1875 3.25 C14.61008057 3.23952637 14.03266113 3.22905273 13.43774414 3.21826172 C0.84475967 3.02120402 -11.34855551 3.3985918 -23.8125 5.25 C-18.56934474 -1.08692606 -7.61589897 0.06234364 0 0 Z " fill="#142036" transform="translate(512.8125,224.75)"/>
<path d="M0 0 C-2.34602223 2.34602223 -4.32844661 2.65260289 -7.46044922 3.49707031 C-13.14544318 5.14627 -17.57020338 6.6501244 -20.765625 11.8828125 C-22.79804433 15.80659718 -24.37144278 19.89640385 -26 24 C-26.66 24.66 -27.32 25.32 -28 26 C-27.05649194 18.55424362 -24.33466528 12.07293207 -20 6 C-16.17460204 3.49251334 -12.40463226 2.15267423 -8 1 C-5.07175348 0.02391783 -3.04386724 -0.08226668 0 0 Z " fill="#111D33" transform="translate(458,553)"/>
<path d="M0 0 C3.1773976 2.65955092 4.4869016 5.83151713 6.171875 9.56640625 C6.45855042 10.20110336 6.74522583 10.83580048 7.04058838 11.48973083 C7.64229878 12.82714952 8.24051774 14.16614385 8.83544922 15.5065918 C9.75046112 17.5635366 10.68108778 19.61290366 11.61328125 21.66210938 C12.19626481 22.96311535 12.77832851 24.264534 13.359375 25.56640625 C13.89014648 26.75177979 14.42091797 27.93715332 14.96777344 29.15844727 C15.3084082 30.09615967 15.64904297 31.03387207 16 32 C15.67 32.66 15.34 33.32 15 34 C12.91121683 32.29099559 12.03819063 31.11511748 11.1796875 28.52734375 C9.5892719 23.77189577 7.55158448 19.25932165 5.5 14.6875 C4.89478516 13.30981445 4.89478516 13.30981445 4.27734375 11.90429688 C3.88675781 11.03224609 3.49617187 10.16019531 3.09375 9.26171875 C2.73990234 8.46725342 2.38605469 7.67278809 2.02148438 6.85424805 C1.13575972 4.83136765 1.13575972 4.83136765 -1 4 C-0.67 2.68 -0.34 1.36 0 0 Z " fill="#101B2E" transform="translate(553,456)"/>
<path d="M0 0 C1.30379321 2.97549077 0.94754767 4.15111078 -0.13989258 7.28393555 C-0.71239255 8.57376281 -1.29812322 9.85777073 -1.89453125 11.13671875 C-2.20194748 11.81676468 -2.50936371 12.49681061 -2.82609558 13.19746399 C-3.47724225 14.63132113 -4.13406627 16.06261175 -4.79614258 17.49145508 C-5.81096831 19.68419048 -6.80616081 21.88504904 -7.79882812 24.08789062 C-8.43375595 25.47968724 -9.06978626 26.87098154 -9.70703125 28.26171875 C-10.00607864 28.92209641 -10.30512604 29.58247406 -10.61323547 30.26286316 C-12.76825888 34.88412944 -12.76825888 34.88412944 -15 36 C-14.34459536 31.72328371 -12.87605651 28.17061621 -11.09375 24.23828125 C-10.80898804 23.60641403 -10.52422607 22.97454681 -10.23083496 22.3235321 C-9.32540448 20.31762029 -8.41277991 18.3150765 -7.5 16.3125 C-6.88625127 14.95528943 -6.27296518 13.59786954 -5.66015625 12.24023438 C-1.32156663 2.64313325 -1.32156663 2.64313325 0 0 Z " fill="#0F1A30" transform="translate(489,416)"/>
<path d="M0 0 C6.37862801 1.90061683 12.05951582 4.40571411 17.875 7.625 C19.35048289 8.43166538 20.82700381 9.23643575 22.3046875 10.0390625 C22.94390137 10.39178223 23.58311523 10.74450195 24.24169922 11.10791016 C26.15826593 12.13454964 26.15826593 12.13454964 29 13 C29 13.66 29 14.32 29 15 C24.20594593 14.37630753 20.42014005 12.38146488 16.1875 10.1875 C15.51396484 9.84396484 14.84042969 9.50042969 14.14648438 9.14648438 C12.78974363 8.45448168 11.43410216 7.76031933 10.07958984 7.06396484 C6.73201597 5.35127091 3.36552065 3.67710715 0 2 C0 1.34 0 0.68 0 0 Z " fill="#0F1D35" transform="translate(632,591)"/>
<path d="M0 0 C2.15815429 1.84984653 3.02531952 3.06828597 4.03125 5.78125 C6.82747898 10.35286246 10.50645282 11.97836177 15.1875 14.375 C16.03248047 14.82488281 16.87746094 15.27476562 17.74804688 15.73828125 C19.82448747 16.84102371 21.90789166 17.92736877 24 19 C20.29589844 20.13867188 20.29589844 20.13867188 17.6328125 18.890625 C16.80523438 18.34921875 15.97765625 17.8078125 15.125 17.25 C12.27200419 15.41233505 9.78041127 13.91053792 6.625 12.625 C2.87473015 10.30340438 1.41027388 7.11468145 0 3 C0 2.01 0 1.02 0 0 Z " fill="#0F1A30" transform="translate(599,555)"/>
<path d="M0 0 C0.84925049 0.03472412 1.69850098 0.06944824 2.57348633 0.10522461 C3.7746106 0.17108765 3.7746106 0.17108765 5 0.23828125 C6.0828125 0.29495972 6.0828125 0.29495972 7.1875 0.3527832 C9 0.6875 9 0.6875 11 2.6875 C6.95834861 2.71665731 2.9167245 2.73435173 -1.125 2.75 C-2.83816406 2.76256836 -2.83816406 2.76256836 -4.5859375 2.77539062 C-5.69453125 2.77861328 -6.803125 2.78183594 -7.9453125 2.78515625 C-9.46922607 2.79301147 -9.46922607 2.79301147 -11.02392578 2.80102539 C-14.09114726 2.68402309 -16.98633134 2.25526417 -20 1.6875 C-20 1.3575 -20 1.0275 -20 0.6875 C-13.26173183 -0.30667071 -6.78338837 -0.32053023 0 0 Z " fill="#111E37" transform="translate(510,546.3125)"/>
<path d="M0 0 C3.28674119 4.17063517 5.37604857 8.65303721 7.625 13.4375 C8.03234375 14.28376953 8.4396875 15.13003906 8.859375 16.00195312 C9.24867188 16.82501953 9.63796875 17.64808594 10.0390625 18.49609375 C10.39178223 19.24044678 10.74450195 19.9847998 11.10791016 20.75170898 C12.0602265 23.15178595 12.56767634 25.45891005 13 28 C12.34 28 11.68 28 11 28 C9.15430021 24.08904426 7.32561657 20.17036581 5.5 16.25 C4.97535156 15.13882813 4.45070313 14.02765625 3.91015625 12.8828125 C3.41386719 11.81289063 2.91757812 10.74296875 2.40625 9.640625 C1.94541016 8.65610352 1.48457031 7.67158203 1.00976562 6.65722656 C0 4 0 4 0 0 Z " fill="#0F1A2E" transform="translate(575,503)"/>
<path d="M0 0 C6.27066778 0.53031933 11.48682086 2.03893645 17.3125 4.375 C18.10978516 4.67921875 18.90707031 4.9834375 19.72851562 5.296875 C23.51325376 6.78657849 26.23341614 7.93536025 29 11 C25.23185973 10.34741705 21.83458532 9.29013667 18.26171875 7.93359375 C17.19501953 7.53076172 16.12832031 7.12792969 15.02929688 6.71289062 C13.92650391 6.29201172 12.82371094 5.87113281 11.6875 5.4375 C10.56537109 5.01275391 9.44324219 4.58800781 8.28710938 4.15039062 C5.52340854 3.10371244 2.76111699 2.05347135 0 1 C0 0.67 0 0.34 0 0 Z " fill="#101D36" transform="translate(555,556)"/>
<path d="M0 0 C0.33 0 0.66 0 1 0 C2.08440284 9.54274504 -2.99133814 18.25334693 -8.5703125 25.671875 C-10 27 -10 27 -13 27 C-12.54109375 26.38253906 -12.0821875 25.76507812 -11.609375 25.12890625 C-5.80010874 17.1106543 -2.10899398 9.66622239 0 0 Z " fill="#0F192B" transform="translate(768,679)"/>
<path d="M0 0 C6.49220017 0.53350256 11.94476651 2.21388793 18 4.5625 C18.87011719 4.89185547 19.74023438 5.22121094 20.63671875 5.56054688 C22.76093854 6.36588295 24.88175164 7.17911481 27 8 C27 8.33 27 8.66 27 9 C20.84478883 8.42889793 15.40280464 7.05710036 9.5625 5.0625 C8.74845703 4.79759766 7.93441406 4.53269531 7.09570312 4.25976562 C6.32291016 4.00001953 5.55011719 3.74027344 4.75390625 3.47265625 C4.05595947 3.23812744 3.3580127 3.00359863 2.63891602 2.76196289 C1 2 1 2 0 0 Z " fill="#101A2E" transform="translate(501,640)"/>
<path d="M0 0 C2.56236973 2.28702434 3.86658789 4.47237649 5.26171875 7.59765625 C5.65810547 8.48130859 6.05449219 9.36496094 6.46289062 10.27539062 C6.86701172 11.19513672 7.27113281 12.11488281 7.6875 13.0625 C8.10322266 13.98611328 8.51894531 14.90972656 8.94726562 15.86132812 C12 22.72371459 12 22.72371459 12 25 C11.34 25 10.68 25 10 25 C8.32414653 21.40003498 6.66091487 17.79437864 5 14.1875 C4.28457031 12.65125977 4.28457031 12.65125977 3.5546875 11.08398438 C3.10351562 10.10107422 2.65234375 9.11816406 2.1875 8.10546875 C1.76855469 7.19949951 1.34960938 6.29353027 0.91796875 5.36010742 C0 3 0 3 0 0 Z " fill="#0E192C" transform="translate(541,430)"/>
<path d="M0 0 C7.92 0 15.84 0 24 0 C23.67 0.66 23.34 1.32 23 2 C15.97942862 3.48960463 8.02057138 3.48960463 1 2 C0.67 1.34 0.34 0.68 0 0 Z " fill="#0F192E" transform="translate(302,724)"/>
<path d="M0 0 C1.07980476 3.21750519 0.97733906 4.82122732 -0.43359375 7.890625 C-0.75263672 8.59960938 -1.07167969 9.30859375 -1.40039062 10.0390625 C-1.74263672 10.76867187 -2.08488281 11.49828125 -2.4375 12.25 C-2.77587891 12.99507812 -3.11425781 13.74015625 -3.46289062 14.5078125 C-4.29826304 16.34327865 -5.14777967 18.17229555 -6 20 C-6.33 20 -6.66 20 -7 20 C-7.29341888 14.32723489 -7.00559652 11.00932754 -4 6 C-3.34 6 -2.68 6 -2 6 C-1.34 4.02 -0.68 2.04 0 0 Z " fill="#14243F" transform="translate(414,582)"/>
<path d="M0 0 C2.24891558 2.06025347 3.58388997 3.85638645 4.7890625 6.65234375 C5.09070313 7.34650391 5.39234375 8.04066406 5.703125 8.75585938 C6.00734375 9.47580078 6.3115625 10.19574219 6.625 10.9375 C6.93695312 11.65357422 7.24890625 12.36964844 7.5703125 13.10742188 C8.98097095 16.38781082 10.19918754 19.51129769 11 23 C10.34 23 9.68 23 9 23 C7.4908559 19.73330954 5.99428299 16.46101184 4.5 13.1875 C4.07074219 12.25873047 3.64148438 11.32996094 3.19921875 10.37304688 C2.79316406 9.48037109 2.38710938 8.58769531 1.96875 7.66796875 C1.59169922 6.84578857 1.21464844 6.0236084 0.82617188 5.17651367 C0 3 0 3 0 0 Z " fill="#0D1628" transform="translate(520,384)"/>
<path d="M0 0 C2.91264011 2.5376595 4.4058112 5.37844197 6.125 8.8125 C6.64320313 9.82957031 7.16140625 10.84664063 7.6953125 11.89453125 C8.98886386 14.97349333 9.59510383 17.69663979 10 21 C9.34 21 8.68 21 8 21 C7.16209211 19.21046815 6.32980604 17.41830305 5.5 15.625 C4.80390625 14.12839844 4.80390625 14.12839844 4.09375 12.6015625 C3 10 3 10 3 8 C2.34 7.67 1.68 7.34 1 7 C0.59270772 4.67843403 0.25561323 2.3431213 0 0 Z " fill="#0F1A2F" transform="translate(531,408)"/>
<path d="M0 0 C0.99 0 1.98 0 3 0 C4.03041513 1.95330868 5.0490893 3.91281528 6.0625 5.875 C6.63097656 6.96554687 7.19945312 8.05609375 7.78515625 9.1796875 C8.38650391 10.57574219 8.38650391 10.57574219 9 12 C8.67 12.66 8.34 13.32 8 14 C7.15841464 12.73461631 6.32700252 11.46246221 5.5 10.1875 C5.0359375 9.47980469 4.571875 8.77210938 4.09375 8.04296875 C3 6 3 6 3 3 C-0.27773504 3.75150023 -0.27773504 3.75150023 -2 7 C-2.66 6.67 -3.32 6.34 -4 6 C-2.1875 3 -2.1875 3 0 0 Z " fill="#12213C" transform="translate(511,369)"/>
<path d="M0 0 C0 0.33 0 0.66 0 1 C-6.29299361 1.41953291 -12.09333017 0.22777513 -18 -2 C-18.33 -2.66 -18.66 -3.32 -19 -4 C-12.78360728 -5.92922533 -5.99536136 -1.99845379 0 0 Z " fill="#13213A" transform="translate(709,621)"/>
<path d="M0 0 C0.69921875 1.58203125 0.69921875 1.58203125 1 4 C-0.29296875 7.19921875 -0.29296875 7.19921875 -2.1875 10.6875 C-2.79980469 11.84636719 -3.41210938 13.00523437 -4.04296875 14.19921875 C-6 17 -6 17 -8.23828125 17.89453125 C-9.11033203 17.94673828 -9.11033203 17.94673828 -10 18 C-9.44570313 17.03578125 -8.89140625 16.0715625 -8.3203125 15.078125 C-7.58848403 13.80211639 -6.8567164 12.52607288 -6.125 11.25 C-5.57779297 10.29867187 -5.57779297 10.29867187 -5.01953125 9.328125 C-3.2603169 6.25749632 -1.53126626 3.19148125 0 0 Z " fill="#0F1B2E" transform="translate(367,687)"/>
<path d="M0 0 C4.15683265 0.55971714 6.77532278 1.90177873 10.1875 4.3125 C11.04730469 4.90675781 11.90710938 5.50101563 12.79296875 6.11328125 C14.98497017 7.98715149 15.95205293 9.34793284 17 12 C13.3284598 9.67425568 9.66194165 7.34082964 6 5 C5.31808594 4.56429687 4.63617187 4.12859375 3.93359375 3.6796875 C2.60373847 2.81448045 1.29809106 1.91217209 0 1 C0 0.67 0 0.34 0 0 Z " fill="#111D32" transform="translate(545,233)"/>
<path d="M0 0 C4.14298667 0.59834725 7.18194377 2.00664285 10.8125 4.0625 C11.78832031 4.61035156 12.76414062 5.15820312 13.76953125 5.72265625 C14.50558594 6.14417969 15.24164062 6.56570313 16 7 C16 7.66 16 8.32 16 9 C12.3971162 8.30680858 9.52100523 6.81454091 6.3125 5.0625 C5.33925781 4.53785156 4.36601563 4.01320313 3.36328125 3.47265625 C1 2 1 2 0 0 Z " fill="#0E1C35" transform="translate(615,582)"/>
<path d="M0 0 C3.15062302 0.30419808 4.10741963 1.10759487 6.39453125 3.3984375 C7.59142578 4.87183594 7.59142578 4.87183594 8.8125 6.375 C9.62332031 7.35210937 10.43414063 8.32921875 11.26953125 9.3359375 C11.84058594 10.21507812 12.41164063 11.09421875 13 12 C12.67 12.99 12.34 13.98 12 15 C8 10 4 5 0 0 Z " fill="#111D33" transform="translate(563,246)"/>
<path d="M0 0 C5.85272256 0.45020943 10.08220119 3.03839227 15 6 C15 6.66 15 7.32 15 8 C9.52067211 6.45454854 4.88570819 3.84456788 0 1 C0 0.67 0 0.34 0 0 Z " fill="#111E35" transform="translate(599,574)"/>
<path d="M0 0 C1 3 1 3 -0.43359375 6.35546875 C-1.09148807 7.6380304 -1.75989743 8.91524057 -2.4375 10.1875 C-2.77587891 10.84169922 -3.11425781 11.49589844 -3.46289062 12.16992188 C-4.29969098 13.78459299 -5.14869746 15.39292763 -6 17 C-7.23306978 14.07323092 -7.01493635 13.03773655 -5.8203125 10.01953125 C-5.26085937 8.96121094 -4.70140625 7.90289063 -4.125 6.8125 C-3.57070313 5.74644531 -3.01640625 4.68039062 -2.4453125 3.58203125 C-1 1 -1 1 0 0 Z " fill="#111D31" transform="translate(279,616)"/>
<path d="M0 0 C0.66 0 1.32 0 2 0 C0.75330996 3.74007011 -0.68513508 4.51247157 -3.875 6.75 C-5.20144531 7.70132813 -5.20144531 7.70132813 -6.5546875 8.671875 C-7.36164063 9.11015625 -8.16859375 9.5484375 -9 10 C-9.99 9.67 -10.98 9.34 -12 9 C-11.21753906 8.43410156 -10.43507813 7.86820313 -9.62890625 7.28515625 C-8.61699219 6.55167969 -7.60507812 5.81820312 -6.5625 5.0625 C-5.55316406 4.33160156 -4.54382813 3.60070312 -3.50390625 2.84765625 C-1.17707392 1.22678115 -1.17707392 1.22678115 0 0 Z " fill="#0F1A2E" transform="translate(351,710)"/>
<path d="M0 0 C1.41623216 -0.05447047 2.83308191 -0.09300508 4.25 -0.125 C5.03890625 -0.14820313 5.8278125 -0.17140625 6.640625 -0.1953125 C9.20731941 0.0171622 10.7916067 0.71345895 13 2 C12 3 12 3 9.49609375 3.09765625 C7.98208984 3.08025391 7.98208984 3.08025391 6.4375 3.0625 C5.42558594 3.05347656 4.41367187 3.04445313 3.37109375 3.03515625 C2.58863281 3.02355469 1.80617188 3.01195312 1 3 C0.67 2.01 0.34 1.02 0 0 Z M-1 3 C1 4 1 4 1 4 Z " fill="#1E375C" transform="translate(481,547)"/>
<path d="M0 0 C1.91635217 -0.05423638 3.83314925 -0.09289963 5.75 -0.125 C7.35101562 -0.15980469 7.35101562 -0.15980469 8.984375 -0.1953125 C12 0 12 0 16 2 C10.06 2.495 10.06 2.495 4 3 C4 2.34 4 1.68 4 1 C2.68 0.67 1.36 0.34 0 0 Z " fill="#111F36" transform="translate(708,724)"/>
<path d="M0 0 C0.66 1.32 1.32 2.64 2 4 C0.35 5.98 -1.3 7.96 -3 10 C-3.75 8.375 -3.75 8.375 -4 6 C-2.0625 2.75 -2.0625 2.75 0 0 Z " fill="#18263B" transform="translate(396,652)"/>
<path d="M0 0 C10.55808656 0.59453303 10.55808656 0.59453303 15 4 C11.14507389 5.28497537 9.59653164 4.4052209 5.8125 3.0625 C4.72582031 2.68222656 3.63914062 2.30195313 2.51953125 1.91015625 C1.68808594 1.60980469 0.85664062 1.30945313 0 1 C0 0.67 0 0.34 0 0 Z " fill="#0F1A2E" transform="translate(529,228)"/>
<path d="M0 0 C5.27749285 0.53851968 9.25645564 1.77343836 14 4 C10.30962722 5.37095624 8.29116165 4.60010967 4.75 3.0625 C3.85796875 2.68222656 2.9659375 2.30195312 2.046875 1.91015625 C1.37140625 1.60980469 0.6959375 1.30945313 0 1 C0 0.67 0 0.34 0 0 Z " fill="#111E37" transform="translate(675,612)"/>
<path d="M0 0 C0.95465783 2.16967689 1.14401212 3.56328793 0.3984375 5.82421875 C-0.35870385 7.5684743 -1.17609198 9.28627131 -2 11 C-2.66 10.67 -3.32 10.34 -4 10 C-2.8905928 6.51329166 -1.73662334 3.22515763 0 0 Z " fill="#18263F" transform="translate(336,494)"/>
<path d="M0 0 C3.44216672 2.6598561 3.99504674 5.90288286 5 10 C1.32769295 6.92000054 0.43197635 4.7517398 0 0 Z " fill="#0D162A" transform="translate(515,373)"/>
<path d="M0 0 C0.33 0.99 0.66 1.98 1 3 C-1.31 4.65 -3.62 6.3 -6 8 C-6 5 -6 5 -4.6875 3.61328125 C-3.125 2.40885417 -1.5625 1.20442708 0 0 Z " fill="#131E32" transform="translate(753,708)"/>
<path d="M0 0 C0 0.99 0 1.98 0 3 C-3.375 3.125 -3.375 3.125 -7 3 C-7.66 2.34 -8.32 1.68 -9 1 C-2.25 0 -2.25 0 0 0 Z " fill="#1B2A43" transform="translate(746,608)"/>
<path d="M0 0 C3.68754757 0.49831724 5.60490662 1.10067643 8 4 C7.01 4.495 7.01 4.495 6 5 C3.98079663 3.69593116 1.98075027 2.36176581 0 1 C0 0.67 0 0.34 0 0 Z " fill="#14223B" transform="translate(615,582)"/>
<path d="M0 0 C-0.99 1.485 -0.99 1.485 -2 3 C-5.625 3.1875 -5.625 3.1875 -9 3 C-6.38997624 -0.48003168 -4.1689578 -0.27793052 0 0 Z " fill="#1E365C" transform="translate(527,548)"/>
<path d="M0 0 C0.6875 1.75 0.6875 1.75 1 4 C-0.3125 6.25 -0.3125 6.25 -2 8 C-2.66 8 -3.32 8 -4 8 C-2.87548273 5.0280615 -1.77706209 2.66559313 0 0 Z " fill="#142137" transform="translate(453,252)"/>
<path d="M0 0 C0.99 0.33 1.98 0.66 3 1 C2.01 1 1.02 1 0 1 C0 0.67 0 0.34 0 0 Z " fill="#273956" transform="translate(288,722)"/>
<path d="M0 0 C0.33 0.66 0.66 1.32 1 2 C0.01 1.67 -0.98 1.34 -2 1 C-1.34 0.67 -0.68 0.34 0 0 Z " fill="#283F63" transform="translate(616,578)"/>
<path d="M0 0 C0.66 0 1.32 0 2 0 C1.67 0.99 1.34 1.98 1 3 C0.67 2.01 0.34 1.02 0 0 Z " fill="#294063" transform="translate(584,531)"/>
<path d="M0 0 C3 1 3 1 3 1 Z " fill="#273A5B" transform="translate(483,639)"/>
<path d="M0 0 C3 1 3 1 3 1 Z " fill="#263A5A" transform="translate(464,637)"/>
<path d="M0 0 C3 1 3 1 3 1 Z " fill="#2A4263" transform="translate(550,552)"/>
<path d="" fill="#2A4467" transform="translate(0,0)"/>
<path d="M0 0 C2 1 2 1 2 1 Z " fill="#273A58" transform="translate(302,727)"/>
<path d="M0 0 C2 1 2 1 2 1 Z " fill="#283D59" transform="translate(695,726)"/>
<path d="M0 0 C2 1 2 1 2 1 Z " fill="#263A58" transform="translate(669,719)"/>
<path d="" fill="#263857" transform="translate(0,0)"/>
<path d="" fill="#293C59" transform="translate(0,0)"/>
<path d="" fill="#283C5E" transform="translate(0,0)"/>
<path d="" fill="#2B4161" transform="translate(0,0)"/>
<path d="" fill="#273A5C" transform="translate(0,0)"/>
<path d="M0 0 C2 1 2 1 2 1 Z " fill="#253A5A" transform="translate(475,638)"/>
<path d="M0 0 C2 1 2 1 2 1 Z " fill="#273B5D" transform="translate(452,638)"/>
<path d="" fill="#273E63" transform="translate(0,0)"/>
<path d="M0 0 C2 1 2 1 2 1 Z " fill="#2A4362" transform="translate(654,600)"/>
<path d="M0 0 C2 1 2 1 2 1 Z " fill="#2B4262" transform="translate(638,592)"/>
<path d="" fill="#2A4062" transform="translate(0,0)"/>
<path d="M0 0 C2 1 2 1 2 1 Z " fill="#274063" transform="translate(597,568)"/>
<path d="M0 0 C2 1 2 1 2 1 Z " fill="#294061" transform="translate(574,560)"/>
<path d="" fill="#2A4061" transform="translate(0,0)"/>
<path d="" fill="#263E60" transform="translate(0,0)"/>
<path d="" fill="#283E61" transform="translate(0,0)"/>
<path d="" fill="#263C5F" transform="translate(0,0)"/>
<path d="M0 0 C2 1 2 1 2 1 Z " fill="#273E61" transform="translate(553,464)"/>
<path d="" fill="#2B4467" transform="translate(0,0)"/>
<path d="" fill="#2A4162" transform="translate(0,0)"/>
<path d="" fill="#263C5E" transform="translate(0,0)"/>
<path d="M0 0 C2 1 2 1 2 1 Z " fill="#273D5E" transform="translate(537,429)"/>
<path d="" fill="#2B4367" transform="translate(0,0)"/>
<path d="" fill="#243C5F" transform="translate(0,0)"/>
<path d="" fill="#253B5E" transform="translate(0,0)"/>
<path d="" fill="#243B5C" transform="translate(0,0)"/>
<path d="" fill="#2A4163" transform="translate(0,0)"/>
<path d="" fill="#262728" transform="translate(0,0)"/>
<path d="" fill="#2A3B59" transform="translate(0,0)"/>
<path d="" fill="#24385A" transform="translate(0,0)"/>
<path d="" fill="#283B59" transform="translate(0,0)"/>
<path d="" fill="#263B59" transform="translate(0,0)"/>
<path d="" fill="#263857" transform="translate(0,0)"/>
<path d="" fill="#273956" transform="translate(0,0)"/>
<path d="" fill="#273A59" transform="translate(0,0)"/>
<path d="" fill="#283855" transform="translate(0,0)"/>
<path d="" fill="#293957" transform="translate(0,0)"/>
<path d="" fill="#283B56" transform="translate(0,0)"/>
<path d="" fill="#273B57" transform="translate(0,0)"/>
<path d="" fill="#2A3C57" transform="translate(0,0)"/>
<path d="" fill="#283D5E" transform="translate(0,0)"/>
<path d="" fill="#273B59" transform="translate(0,0)"/>
<path d="" fill="#263B58" transform="translate(0,0)"/>
<path d="" fill="#263B55" transform="translate(0,0)"/>
<path d="" fill="#293E59" transform="translate(0,0)"/>
<path d="" fill="#253955" transform="translate(0,0)"/>
<path d="" fill="#273C5D" transform="translate(0,0)"/>
<path d="" fill="#273B58" transform="translate(0,0)"/>
<path d="" fill="#293B59" transform="translate(0,0)"/>
<path d="" fill="#263B58" transform="translate(0,0)"/>
<path d="" fill="#263857" transform="translate(0,0)"/>
<path d="" fill="#283A59" transform="translate(0,0)"/>
<path d="" fill="#273B58" transform="translate(0,0)"/>
<path d="" fill="#283A5A" transform="translate(0,0)"/>
<path d="" fill="#273D5A" transform="translate(0,0)"/>
<path d="" fill="#273F5F" transform="translate(0,0)"/>
<path d="" fill="#273957" transform="translate(0,0)"/>
<path d="" fill="#283958" transform="translate(0,0)"/>
<path d="" fill="#273958" transform="translate(0,0)"/>
<path d="" fill="#283A57" transform="translate(0,0)"/>
<path d="" fill="#283957" transform="translate(0,0)"/>
<path d="" fill="#283A58" transform="translate(0,0)"/>
<path d="" fill="#283F5F" transform="translate(0,0)"/>
<path d="" fill="#283C5A" transform="translate(0,0)"/>
<path d="" fill="#283E5D" transform="translate(0,0)"/>
<path d="" fill="#2A3F62" transform="translate(0,0)"/>
<path d="" fill="#283D5E" transform="translate(0,0)"/>
<path d="" fill="#293F62" transform="translate(0,0)"/>
<path d="" fill="#273F61" transform="translate(0,0)"/>
<path d="" fill="#273A59" transform="translate(0,0)"/>
<path d="" fill="#283E5F" transform="translate(0,0)"/>
<path d="" fill="#263A58" transform="translate(0,0)"/>
<path d="" fill="#273C58" transform="translate(0,0)"/>
<path d="" fill="#243655" transform="translate(0,0)"/>
<path d="" fill="#273D5F" transform="translate(0,0)"/>
<path d="" fill="#283E61" transform="translate(0,0)"/>
<path d="" fill="#253958" transform="translate(0,0)"/>
<path d="" fill="#27395A" transform="translate(0,0)"/>
<path d="" fill="#2A4264" transform="translate(0,0)"/>
<path d="" fill="#283E5F" transform="translate(0,0)"/>
<path d="" fill="#2A4365" transform="translate(0,0)"/>
<path d="" fill="#283C5D" transform="translate(0,0)"/>
<path d="" fill="#273C5F" transform="translate(0,0)"/>
<path d="" fill="#253C5F" transform="translate(0,0)"/>
<path d="" fill="#283B5C" transform="translate(0,0)"/>
<path d="" fill="#273B5D" transform="translate(0,0)"/>
<path d="" fill="#283C5E" transform="translate(0,0)"/>
<path d="" fill="#2B4062" transform="translate(0,0)"/>
<path d="" fill="#2A3F61" transform="translate(0,0)"/>
<path d="" fill="#2D4364" transform="translate(0,0)"/>
<path d="" fill="#2C4668" transform="translate(0,0)"/>
<path d="" fill="#263D62" transform="translate(0,0)"/>
<path d="" fill="#2C4369" transform="translate(0,0)"/>
<path d="" fill="#2A4468" transform="translate(0,0)"/>
<path d="" fill="#2B4566" transform="translate(0,0)"/>
<path d="" fill="#284468" transform="translate(0,0)"/>
<path d="" fill="#2D4368" transform="translate(0,0)"/>
<path d="" fill="#2D4466" transform="translate(0,0)"/>
<path d="" fill="#2A4163" transform="translate(0,0)"/>
<path d="" fill="#2E4566" transform="translate(0,0)"/>
<path d="" fill="#2D4567" transform="translate(0,0)"/>
<path d="" fill="#2C4568" transform="translate(0,0)"/>
<path d="" fill="#2B4168" transform="translate(0,0)"/>
<path d="" fill="#2A4166" transform="translate(0,0)"/>
<path d="" fill="#273D61" transform="translate(0,0)"/>
<path d="" fill="#274064" transform="translate(0,0)"/>
<path d="" fill="#274062" transform="translate(0,0)"/>
<path d="" fill="#293F62" transform="translate(0,0)"/>
<path d="" fill="#2D4466" transform="translate(0,0)"/>
<path d="" fill="#2E4165" transform="translate(0,0)"/>
<path d="" fill="#2C4263" transform="translate(0,0)"/>
<path d="" fill="#274263" transform="translate(0,0)"/>
<path d="" fill="#2B4265" transform="translate(0,0)"/>
<path d="" fill="#253F61" transform="translate(0,0)"/>
<path d="" fill="#2A4064" transform="translate(0,0)"/>
<path d="" fill="#2A4061" transform="translate(0,0)"/>
<path d="" fill="#273A5A" transform="translate(0,0)"/>
<path d="" fill="#263D62" transform="translate(0,0)"/>
<path d="" fill="#263F60" transform="translate(0,0)"/>
<path d="" fill="#263D5E" transform="translate(0,0)"/>
<path d="" fill="#293D63" transform="translate(0,0)"/>
<path d="" fill="#294363" transform="translate(0,0)"/>
<path d="" fill="#274060" transform="translate(0,0)"/>
<path d="" fill="#284264" transform="translate(0,0)"/>
<path d="" fill="#293E5E" transform="translate(0,0)"/>
<path d="" fill="#2E4666" transform="translate(0,0)"/>
<path d="" fill="#2A4363" transform="translate(0,0)"/>
<path d="" fill="#284365" transform="translate(0,0)"/>
<path d="" fill="#2B4063" transform="translate(0,0)"/>
<path d="" fill="#294267" transform="translate(0,0)"/>
<path d="" fill="#284364" transform="translate(0,0)"/>
<path d="" fill="#29405F" transform="translate(0,0)"/>
<path d="" fill="#2D4669" transform="translate(0,0)"/>
<path d="" fill="#2C4266" transform="translate(0,0)"/>
<path d="" fill="#2B4060" transform="translate(0,0)"/>
<path d="" fill="#2B4668" transform="translate(0,0)"/>
<path d="" fill="#273F61" transform="translate(0,0)"/>
<path d="" fill="#284063" transform="translate(0,0)"/>
<path d="" fill="#2D4467" transform="translate(0,0)"/>
<path d="" fill="#2B4466" transform="translate(0,0)"/>
<path d="" fill="#2B4063" transform="translate(0,0)"/>
<path d="" fill="#284163" transform="translate(0,0)"/>
<path d="" fill="#2B4366" transform="translate(0,0)"/>
<path d="" fill="#2C4567" transform="translate(0,0)"/>
<path d="" fill="#2A4266" transform="translate(0,0)"/>
<path d="" fill="#273F60" transform="translate(0,0)"/>
<path d="" fill="#2E4365" transform="translate(0,0)"/>
<path d="" fill="#2C446A" transform="translate(0,0)"/>
<path d="" fill="#293E61" transform="translate(0,0)"/>
<path d="" fill="#2C446A" transform="translate(0,0)"/>
<path d="" fill="#273E60" transform="translate(0,0)"/>
<path d="" fill="#263E60" transform="translate(0,0)"/>
<path d="" fill="#2B4166" transform="translate(0,0)"/>
<path d="" fill="#2A4467" transform="translate(0,0)"/>
<path d="" fill="#283F61" transform="translate(0,0)"/>
<path d="" fill="#2A4166" transform="translate(0,0)"/>
<path d="" fill="#2D4665" transform="translate(0,0)"/>
<path d="" fill="#294266" transform="translate(0,0)"/>
<path d="" fill="#284064" transform="translate(0,0)"/>
<path d="" fill="#273D60" transform="translate(0,0)"/>
<path d="" fill="#2A4464" transform="translate(0,0)"/>
<path d="" fill="#274060" transform="translate(0,0)"/>
<path d="" fill="#2B4469" transform="translate(0,0)"/>
<path d="" fill="#263F62" transform="translate(0,0)"/>
<path d="" fill="#293F5F" transform="translate(0,0)"/>
<path d="" fill="#2C4366" transform="translate(0,0)"/>
<path d="" fill="#2D4465" transform="translate(0,0)"/>
<path d="" fill="#294264" transform="translate(0,0)"/>
<path d="" fill="#284366" transform="translate(0,0)"/>
<path d="" fill="#273E60" transform="translate(0,0)"/>
<path d="" fill="#283F5D" transform="translate(0,0)"/>
<path d="" fill="#233A5A" transform="translate(0,0)"/>
<path d="" fill="#2D446A" transform="translate(0,0)"/>
<path d="" fill="#284264" transform="translate(0,0)"/>
<path d="" fill="#294166" transform="translate(0,0)"/>
<path d="" fill="#294263" transform="translate(0,0)"/>
<path d="" fill="#2A4163" transform="translate(0,0)"/>
<path d="" fill="#253B5C" transform="translate(0,0)"/>
<path d="" fill="#253C5C" transform="translate(0,0)"/>
<path d="" fill="#243F60" transform="translate(0,0)"/>
<path d="" fill="#253C5C" transform="translate(0,0)"/>
<path d="" fill="#253C5F" transform="translate(0,0)"/>
<path d="" fill="#24395F" transform="translate(0,0)"/>
<path d="" fill="#2B4163" transform="translate(0,0)"/>
<path d="" fill="#243C5C" transform="translate(0,0)"/>
<path d="" fill="#2B4465" transform="translate(0,0)"/>
<path d="" fill="#243C5D" transform="translate(0,0)"/>
<path d="" fill="#2B4263" transform="translate(0,0)"/>
<path d="" fill="#2C4465" transform="translate(0,0)"/>
<path d="" fill="#223D5D" transform="translate(0,0)"/>
<path d="" fill="#263D5D" transform="translate(0,0)"/>
<path d="" fill="#263C60" transform="translate(0,0)"/>
<path d="" fill="#2B4461" transform="translate(0,0)"/>
<path d="" fill="#2A4362" transform="translate(0,0)"/>
<path d="" fill="#2B4064" transform="translate(0,0)"/>
<path d="" fill="#284164" transform="translate(0,0)"/>
<path d="" fill="#294262" transform="translate(0,0)"/>
<path d="" fill="#294161" transform="translate(0,0)"/>
<path d="" fill="#283F63" transform="translate(0,0)"/>
<path d="" fill="#2A4064" transform="translate(0,0)"/>
<path d="" fill="#2B4064" transform="translate(0,0)"/>
<path d="" fill="#2A3F64" transform="translate(0,0)"/>
<path d="" fill="#2A4363" transform="translate(0,0)"/>
<path d="" fill="#2B4163" transform="translate(0,0)"/>
<path d="" fill="#2A4163" transform="translate(0,0)"/>
<path d="" fill="#2B4164" transform="translate(0,0)"/>
<path d="" fill="#263A59" transform="translate(0,0)"/>
<path d="" fill="#2A4264" transform="translate(0,0)"/>
<path d="" fill="#294162" transform="translate(0,0)"/>
<path d="" fill="#2B4365" transform="translate(0,0)"/>
<path d="" fill="#283F5C" transform="translate(0,0)"/>
<path d="" fill="#2B4261" transform="translate(0,0)"/>
<path d="" fill="#2A4063" transform="translate(0,0)"/>
<path d="" fill="#2B3F61" transform="translate(0,0)"/>
<path d="" fill="#283F5C" transform="translate(0,0)"/>
<path d="" fill="#283D5E" transform="translate(0,0)"/>
<path d="" fill="#293F5E" transform="translate(0,0)"/>
<path d="" fill="#2A3F60" transform="translate(0,0)"/>
<path d="" fill="#263D5E" transform="translate(0,0)"/>
<path d="" fill="#2A3E5E" transform="translate(0,0)"/>
<path d="" fill="#273F61" transform="translate(0,0)"/>
<path d="" fill="#284062" transform="translate(0,0)"/>
<path d="" fill="#283F61" transform="translate(0,0)"/>
<path d="" fill="#2A405E" transform="translate(0,0)"/>
</svg>
